<?xml version="1.0" standalone="no"?>
<!DOCTYPE svg PUBLIC "-//W3C//DTD SVG 1.1//EN" "http://www.w3.org/Graphics/SVG/1.1/DTD/svg11.dtd" >
<svg xmlns="http://www.w3.org/2000/svg" xmlns:xlink="http://www.w3.org/1999/xlink" version="1.1">
<metadata></metadata>
<defs>
<font id="bembobold_italic" horiz-adv-x="1366" >
<font-face units-per-em="2048" ascent="1536" descent="-512" />
<missing-glyph horiz-adv-x="569" />
<glyph horiz-adv-x="0" />
<glyph horiz-adv-x="0" />
<glyph unicode="&#xd;" horiz-adv-x="512" />
<glyph unicode=" "  horiz-adv-x="569" />
<glyph unicode="&#x09;" horiz-adv-x="569" />
<glyph unicode="&#xa0;" horiz-adv-x="569" />
<glyph unicode="!" horiz-adv-x="661" d="M164 113q0 61 43 109t106 48q57 0 90 -36.5t33 -96.5q0 -66 -41 -113t-106 -47q-47 0 -86 35t-39 101zM313 354l78 863q4 49 22.5 67.5t69.5 18.5h107q66 0 82 -30t-2 -85l-287 -834h-70z" />
<glyph unicode="&#x22;" horiz-adv-x="1130" d="M285 1149q0 66 42 110t105 44t105.5 -44.5t42.5 -109.5q0 -27 -5.5 -60.5t-15.5 -68.5l-102 -383h-49l-103 383q-10 35 -15 68.5t-5 60.5zM768 1149q0 66 42 110t105 44t105.5 -44.5t42.5 -109.5q0 -27 -5 -60.5t-16 -68.5l-102 -383h-49l-103 383q-10 35 -15 68.5 t-5 60.5z" />
<glyph unicode="#" horiz-adv-x="1368" d="M158 326v143h219l74 350h-293v144h321l86 397h144l-86 -397h399l84 397h143l-84 -397h189v-144h-215l-74 -350h289v-143h-318l-84 -396h-143l84 396h-401l-84 -396h-144l84 396h-190zM520 469h402l73 350h-401z" />
<glyph unicode="$" horiz-adv-x="960" d="M113 201q0 53 26.5 84.5t73.5 31.5t75.5 -31.5t28.5 -84.5q0 -23 -1 -38.5t-1 -25.5q0 -37 18.5 -58.5t67.5 -35.5l99 481q-57 55 -99.5 102.5t-69 93.5t-38.5 95t-12 109q0 66 23.5 130t69.5 115.5t115.5 83t163.5 31.5l21 92h71l-20 -92q117 -14 184.5 -77.5 t67.5 -157.5q0 -57 -27.5 -93t-72.5 -36q-41 0 -68 28.5t-27 73.5q0 16 4.5 37.5t4.5 36.5q0 35 -18.5 64.5t-61.5 49.5l-95 -460q72 -68 121 -123.5t80 -105.5t44 -98t13 -99q0 -80 -30.5 -143.5t-86 -109.5t-131 -72t-167.5 -28l-37 -178h-72l37 178q-133 18 -203.5 79 t-70.5 151zM461 1012q0 -96 96 -203l84 412q-37 -4 -69.5 -23.5t-57.5 -47.5t-39 -63.5t-14 -74.5zM473 41q86 12 137.5 67.5t51.5 135.5q0 53 -24 102t-79 117z" />
<glyph unicode="%" horiz-adv-x="1728" d="M197 848q0 66 24.5 144.5t69.5 148t107.5 116t138.5 46.5q90 0 142 -66t52 -178q0 -84 -28.5 -165t-76.5 -143.5t-108.5 -101.5t-124.5 -39q-86 0 -141 67t-55 171zM358 743q0 -82 41 -81q23 0 44.5 32.5t41 82.5t36 111.5t27.5 118t17 102.5t6 65q0 78 -45 77 q-23 0 -43 -31.5t-38.5 -82t-35 -109.5t-27.5 -115.5t-17.5 -103t-6.5 -66.5zM463 -59l831 1435h133l-831 -1435h-133zM1141 223q0 66 24.5 144.5t69.5 148.5t107.5 116t138.5 46q90 0 142 -65.5t52 -178.5q0 -84 -28.5 -165t-76.5 -143.5t-108.5 -101t-124.5 -38.5 q-86 0 -141 66.5t-55 170.5zM1303 119q0 -82 40 -82q23 0 44.5 32.5t41 83t36 112t27.5 117.5t17.5 102t6.5 65q0 78 -46 78q-23 0 -43 -32t-38.5 -82t-35 -109.5t-27.5 -116t-17 -102.5t-6 -66z" />
<glyph unicode="&#x26;" horiz-adv-x="1492" d="M133 371q0 141 103.5 238.5t283.5 127.5v4q-57 4 -99 23.5t-68.5 49.5t-39 67t-12.5 75q0 78 45 141.5t119 108.5t166 71t186 26q121 0 194.5 -26t113.5 -60.5t54.5 -70.5t14.5 -59q0 -41 -32 -75.5t-77 -34.5q-16 0 -40.5 9t-38.5 24q-29 29 -36 64.5t-16.5 66t-36 51 t-96.5 20.5q-74 0 -122 -30.5t-76.5 -75.5t-40 -98.5t-11.5 -96.5q0 -70 27 -99.5t86 -29.5q12 0 26.5 3t26.5 3q23 0 39.5 -16t16.5 -41q0 -27 -16.5 -43t-45.5 -16t-48 3t-46 3q-102 0 -158.5 -70.5t-56.5 -193.5q0 -156 98 -241t273 -85q86 0 166.5 24.5t143 64.5 t100.5 94.5t38 111.5q0 86 -57.5 137t-151.5 51q-57 0 -85.5 -18t-28.5 -39q0 -16 14 -23.5t30.5 -15.5t31 -21.5t14.5 -41.5q0 -29 -23.5 -49.5t-54.5 -20.5q-47 0 -84 38t-37 87q0 51 26.5 96t72.5 78t108.5 51.5t136.5 18.5q31 0 70 -5.5t73.5 -10.5t63.5 -10t41 -5 q18 0 31.5 10t13.5 25q0 12 -8 20t-19.5 17.5t-19.5 22.5t-8 36q0 41 23.5 64.5t62.5 23.5q43 0 71.5 -29.5t28.5 -76.5q0 -94 -82 -164t-217 -88q29 -39 40 -72t11 -70q0 -72 -39 -147.5t-116.5 -138t-194.5 -102.5t-274 -40q-152 0 -260.5 35t-177 91.5t-101.5 128 t-33 145.5z" />
<glyph unicode="'" horiz-adv-x="575" d="M250 1149q0 66 42 110t105 44t105.5 -44.5t42.5 -109.5q0 -27 -5 -60.5t-16 -68.5l-102 -383h-49l-103 383q-10 35 -15 68.5t-5 60.5z" />
<glyph unicode="(" horiz-adv-x="598" d="M147 319q0 322 158 586t469 471l57 -55q-100 -68 -174.5 -167t-128 -214t-88 -237.5t-55 -238.5t-29 -216.5t-8.5 -169.5q0 -291 113 -516l-62 -33q-55 80 -102 178t-80 201.5t-51.5 209t-18.5 201.5z" />
<glyph unicode=")" horiz-adv-x="598" d="M-143 -416q100 68 174.5 167t128 214t88.5 238t55.5 238.5t28.5 216t8 169.5q0 291 -113 516l62 33q55 -80 102 -178t80 -201.5t51.5 -209t18.5 -201.5q0 -322 -158 -586t-469 -471z" />
<glyph unicode="*" horiz-adv-x="1067" d="M193 1028l38 72l316 -92l131 295l74 -15l6 -323l329 -39l9 -78l-310 -105l66 -321l-72 -29l-198 262l-281 -163l-57 55l190 268z" />
<glyph unicode="+" d="M186 590v155h469v469h156v-469h469v-155h-469v-469h-156v469h-469z" />
<glyph unicode="," horiz-adv-x="661" d="M27 -279q92 23 149 77.5t57 121.5q0 45 -13 71.5t-29.5 49t-30 47.5t-13.5 64q0 53 38 87.5t94 34.5q68 0 111.5 -54t43.5 -140q0 -70 -29.5 -137.5t-82 -124t-120 -98.5t-145.5 -58z" />
<glyph unicode="-" horiz-adv-x="854" d="M68 313l41 205h708l-41 -205h-708z" />
<glyph unicode="." horiz-adv-x="661" d="M162 113q0 61 43 109t106 48q57 0 90 -36.5t33 -96.5q0 -66 -41 -113t-106 -47q-47 0 -86 35t-39 101z" />
<glyph unicode="/" horiz-adv-x="1087" d="M170 -37l731 1340h166l-731 -1340h-166z" />
<glyph unicode="0" horiz-adv-x="960" d="M121 424q0 29 3 66.5t9 79.5t14.5 82t16.5 73q33 119 90 229.5t127 188.5q141 160 293 160q72 0 128 -33t97 -93.5t62.5 -145.5t21.5 -191q0 -156 -43 -306.5t-123 -279.5q-84 -133 -186.5 -208t-200.5 -75q-68 0 -125 34t-98 93.5t-63.5 142.5t-22.5 183zM352 221 q0 -82 23.5 -127t66.5 -45q68 0 121 115q35 70 70 200t69 300q53 270 54 399q0 76 -23.5 119t-64.5 43q-59 0 -105.5 -76t-91.5 -250q-8 -33 -15 -63.5t-15.5 -70.5t-18.5 -95.5t-27 -137.5q-23 -109 -33 -188.5t-10 -122.5z" />
<glyph unicode="1" horiz-adv-x="960" d="M174 0l12 68h11q45 0 75.5 10t53 36.5t38 71.5t29.5 113l146 715q-68 -47 -141.5 -86t-174.5 -86l19 90q158 74 287.5 168t201.5 203h111l-217 -1072q-16 -80 11.5 -119.5t125.5 -43.5l-12 -68h-576z" />
<glyph unicode="2" horiz-adv-x="960" d="M33 0v68q332 332 487.5 560t155.5 390q0 150 -137 149q-74 0 -138.5 -56t-95.5 -150h-69q12 78 49 141t90 108t118.5 69t135.5 24q68 0 125 -23t99 -60.5t66.5 -91t24.5 -114.5q0 -92 -60.5 -188.5t-154.5 -190.5q-88 -88 -191.5 -181.5t-246.5 -224.5h319 q68 0 96.5 21.5t43.5 81.5h69l-67 -332h-719z" />
<glyph unicode="3" horiz-adv-x="960" d="M74 68q0 53 24.5 93t71.5 40q27 0 54.5 -18.5t55 -40t56.5 -40t57 -18.5q39 0 75 36t63.5 95t44 137t16.5 162q0 78 -30 123t-83 45q-20 0 -54 -12.5t-65 -34.5l19 94l131 102q82 63 126 125t44 115q0 47 -28.5 77t-73.5 30q-39 0 -89.5 -27t-105.5 -84l-51 47 q76 94 158.5 141.5t189.5 47.5q106 0 173 -52.5t67 -138.5q0 -59 -29 -102t-73 -77t-99 -60.5t-111 -51.5l4 -4q61 4 107.5 -17.5t75 -57t43 -81t14.5 -90.5q0 -100 -52 -206.5t-138.5 -193.5t-199 -143.5t-233.5 -56.5q-156 0 -155 97z" />
<glyph unicode="4" horiz-adv-x="960" d="M100 326l39 194l678 783h94l-161 -797h211l-37 -180h-211l-72 -355h-231l71 355h-381zM219 506h299l92 452l-4 5z" />
<glyph unicode="5" horiz-adv-x="960" d="M78 78q0 53 24.5 88t61.5 35q35 0 64.5 -18.5t57 -40t57.5 -40t63 -18.5q47 0 86.5 43t69.5 103.5t47.5 126t17.5 110.5q0 76 -38 121t-102 45q-31 0 -58.5 -11.5t-68.5 -39.5l-43 43l175 622q25 6 63.5 8t82.5 2t89 -1t80 -1q78 0 101.5 12.5t35.5 51.5h72l-58 -279 q-61 -14 -124.5 -12t-126.5 6q-61 2 -103.5 5t-97.5 -13l-55 -199q59 23 120 23q121 0 194 -77t73 -204q0 -100 -46.5 -205.5t-127 -192.5t-192.5 -143.5t-243 -56.5q-82 0 -116.5 24.5t-34.5 82.5z" />
<glyph unicode="6" horiz-adv-x="960" d="M135 340q0 166 70.5 323.5t193.5 287.5t288 223.5t353 128.5l-16 -74q-201 -82 -325 -213t-201 -328q47 25 81.5 35t75.5 10q111 0 179.5 -75.5t68.5 -198.5q0 -94 -40 -182.5t-106.5 -156t-151.5 -108.5t-177 -41q-139 0 -216 97.5t-77 271.5zM369 208q-2 -73 15 -116 t58 -43q29 0 56.5 32t51 80t43 106.5t34 112.5t21.5 98t7 61q0 41 -22.5 67.5t-59.5 26.5q-25 0 -51 -12t-67 -41q-39 -106 -61.5 -202.5t-24.5 -169.5z" />
<glyph unicode="7" horiz-adv-x="960" d="M199 868l100 406h727v-72l-541 -1231h-190l551 1078h-385q-49 0 -80 -6.5t-51.5 -26t-34.5 -55t-27 -93.5h-69z" />
<glyph unicode="8" horiz-adv-x="960" d="M123 246q0 66 22.5 119t63.5 99t98.5 87t128.5 82q-70 72 -108.5 149.5t-38.5 159.5q0 59 23.5 122.5t73.5 116t127 87.5t183 35q135 0 216 -68t81 -180q0 -207 -309 -338q104 -109 149.5 -192t45.5 -165q0 -63 -26 -131.5t-80 -126t-135 -94.5t-192 -37q-145 0 -234 76 t-89 199zM328 248q0 -94 37.5 -146.5t105.5 -52.5q78 0 131 62.5t53 154.5q0 43 -10 80t-31.5 74t-56.5 76t-82 86q-70 -59 -108.5 -148.5t-38.5 -185.5zM479 1024q0 -33 8.5 -60.5t26.5 -56t48 -61.5t73 -80q153 141 153 299q0 74 -35.5 117t-99.5 43q-74 0 -124 -57.5 t-50 -143.5z" />
<glyph unicode="9" horiz-adv-x="960" d="M76 -29l14 70q84 29 156.5 72t137.5 107.5t123 152.5t111 205l-4 4q-43 -25 -75.5 -34t-73.5 -9q-111 0 -178.5 76.5t-67.5 199.5q0 94 41 182t108.5 156t152.5 109t173 41q139 0 216 -97.5t77 -271.5q0 -184 -83 -350t-214 -295t-292.5 -213t-321.5 -105zM465 723 q0 -88 78 -88q47 0 129 59q49 131 68.5 245t19.5 173q0 10 -3 28.5t-12.5 37t-24.5 33t-40 14.5q-29 0 -56.5 -32t-52 -81t-44 -107.5t-33 -114.5t-21.5 -101.5t-8 -65.5z" />
<glyph unicode=":" horiz-adv-x="661" d="M162 113q0 61 43 109t106 48q57 0 90 -36.5t33 -96.5q0 -66 -41 -113t-106 -47q-47 0 -86 35t-39 101zM283 700q0 61 43 109.5t106 48.5q57 0 90 -37t33 -96q0 -66 -41 -113t-106 -47q-47 0 -86 35t-39 100z" />
<glyph unicode=";" horiz-adv-x="661" d="M27 -279q92 23 149 77.5t57 121.5q0 45 -13 71.5t-29.5 49t-30 47.5t-13.5 64q0 53 38 87.5t94 34.5q68 0 111.5 -54t43.5 -140q0 -70 -29.5 -137.5t-82 -124t-120 -98.5t-145.5 -58zM283 700q0 61 43 109.5t106 48.5q57 0 90 -37t33 -96q0 -66 -41 -113t-106 -47 q-47 0 -86 35t-39 100z" />
<glyph unicode="&#x3c;" d="M186 596v143l1094 459v-170l-881 -360l881 -361v-170z" />
<glyph unicode="=" d="M186 356v156h1094v-156h-1094zM186 827v156h1094v-156h-1094z" />
<glyph unicode="&#x3e;" d="M188 137v170l881 361l-881 360v170l1094 -459v-143z" />
<glyph unicode="?" horiz-adv-x="874" d="M162 113q0 61 43 109t106 48q57 0 90 -36.5t33 -96.5q0 -66 -41 -113t-106 -47q-47 0 -86 35t-39 101zM262 1139q0 74 65.5 119t176.5 45q160 0 246 -88.5t86 -249.5q0 -113 -37 -193t-82 -125q-57 -57 -113.5 -81.5t-102.5 -44t-77 -49.5t-41 -99h-68q4 129 23.5 225 t87.5 164q39 39 92 62.5t102.5 45t84 47t34.5 70.5q0 43 -38.5 71.5t-98.5 28.5q-31 0 -57.5 -8t-54 -17t-58.5 -17.5t-70 -8.5q-43 0 -71.5 29t-28.5 74z" />
<glyph unicode="@" horiz-adv-x="1705" d="M104 420q0 199 70 366.5t194 290.5t295 191.5t373 68.5q156 0 283 -47t218 -133t141.5 -206t50.5 -265t-44.5 -270t-122 -217.5t-183 -145.5t-228.5 -53q-92 0 -144.5 46t-52.5 126q0 23 6.5 58.5t16.5 70.5l-4 4q-78 -143 -158 -224t-170 -81q-74 0 -118 58.5t-44 160.5 q0 135 50.5 262t125 226.5t161.5 160t161 60.5q59 0 92 -36t43 -114h4l31 115l235 8l-176 -604q-14 -47 -21 -87t-7 -63q0 -33 21.5 -55t56.5 -22q47 0 117.5 40t137 115.5t113.5 187t47 255.5q0 135 -45 246.5t-127 191.5t-195.5 125t-250.5 45q-209 0 -368 -78 t-266.5 -204t-162.5 -285.5t-55 -323.5q0 -166 55 -305t155.5 -239.5t239 -157t303.5 -56.5q113 0 233 32t227.5 96.5t194.5 166t136 238.5h59q-117 -285 -335 -435.5t-517 -150.5q-186 0 -341.5 63.5t-269.5 175t-177.5 267.5t-63.5 340zM731 266q0 -39 16.5 -64.5 t40.5 -25.5q33 0 82.5 52.5t94.5 133t77.5 178t32.5 189.5q0 59 -19.5 94t-49.5 35q-45 0 -93.5 -69.5t-88.5 -166t-66.5 -196.5t-26.5 -160z" />
<glyph unicode="A" horiz-adv-x="1472" d="M-76 0l17 80q80 0 136 40t132 138l792 1047h195l14 -1069q0 -45 7.5 -75t25 -48.5t48 -25.5t81.5 -7h21l-17 -80h-641l17 80h51q78 0 118 34q37 31 37 113v13l-4 260h-452l-193 -254q-34 -43 -34 -79q-1 -20 11 -38q30 -49 115 -49h27l-16 -80h-488zM592 618h360v467h-6z " />
<glyph unicode="B" horiz-adv-x="1343" d="M41 0l16 80q49 0 82 10t54.5 35t36 64.5t26.5 101.5l147 725q6 34 6 62q0 42 -14 70q-24 46 -125 46h-39l17 80h694q68 0 135.5 -16.5t121.5 -50t88 -85t34 -121.5q0 -47 -18.5 -93t-58.5 -86t-101.5 -69.5t-145.5 -45.5v-5q135 -37 208 -117.5t73 -191.5 q0 -61 -29.5 -129.5t-89 -127t-152 -97.5t-214.5 -39h-752zM504 244q-5 -25 -5 -47q1 -47 25 -72q36 -37 127 -37q92 0 153.5 22.5t102.5 63.5q49 49 75 122t26 136q0 111 -80 175.5t-211 64.5h-125zM608 758h168q92 0 148.5 27.5t87 67.5t42 83t11.5 74t-11.5 61.5t-38 57 t-69.5 43t-106 16.5h-144z" />
<glyph unicode="C" horiz-adv-x="1492" d="M180 541q0 123 47 257t153.5 245.5t278.5 185.5t420 74q123 0 229.5 -20.5t198.5 -61.5l-77 -324h-82q1 15 1 29q-1 56 -19 103q-24 58 -68.5 99t-106 63.5t-131.5 22.5q-100 0 -199.5 -42t-179.5 -130t-130 -224t-50 -324q0 -199 92 -317t262 -118q135 0 254 69t207 198 h84l-104 -326h-46q-18 16 -31.5 21.5t-39.5 5.5q-27 0 -67 -8.5t-88 -19.5t-103.5 -19.5t-114.5 -8.5q-125 0 -232.5 44t-187.5 121t-125 181.5t-45 223.5z" />
<glyph unicode="D" horiz-adv-x="1642" d="M25 0l16 80h20q78 0 122 37t63 135l155 764q7 36 7 65q0 43 -16 69q-27 44 -124 44h-41l17 80h686q195 0 325.5 -43t211.5 -119t116 -177t35 -216q0 -113 -42 -240t-140.5 -233.5t-260 -176t-401.5 -69.5h-749zM499 190q1 -34 19.5 -56.5t60.5 -34t113 -11.5 q92 0 165 16.5t129 42t95 54t64 53.5q47 47 81 107.5t56.5 126t33.5 130t11 117.5q0 94 -28.5 176t-87 143.5t-146.5 97.5t-209 36h-162l-186 -916q-9 -43 -9 -75v-7z" />
<glyph unicode="E" horiz-adv-x="1343" d="M33 0l16 80q49 0 83 11t55.5 36t35 64.5t25.5 97.5l147 725q7 36 7 65q0 44 -16 71q-28 44 -124 44h-37l17 80h1132l-63 -309h-97q4 26 4 49q0 36 -10 62q-16 42 -47 67.5t-74 35t-86 9.5h-313l-102 -506h295q98 0 138 36t62 107h84l-84 -411h-82q6 37 6 66q-1 52 -19 77 q-28 39 -128 39h-291l-69 -344q-6 -30 -6 -55q0 -48 24 -73q36 -38 121 -38h78q147 0 266 59.5t211 169.5h92l-115 -315h-1136z" />
<glyph unicode="F" horiz-adv-x="1236" d="M14 0l17 80h20q96 0 136 45t61 143l151 746q6 34 6 63q0 42 -14 70q-24 47 -125 47h-45l17 80h1110l-64 -311h-80q3 26 3 49q0 88 -48 127q-61 49 -178 49h-289l-100 -498h293q94 0 142 31t67 104h82l-80 -399h-82q5 34 5 62q-1 53 -19 78q-28 38 -115 38h-312l-73 -368 q-5 -26 -5 -47q-1 -44 21 -70q32 -39 107 -39h69l-16 -80h-662z" />
<glyph unicode="G" horiz-adv-x="1642" d="M172 555q0 104 43 233.5t145.5 244t271.5 192.5t421 78q106 0 226 -18.5t269 -57.5l8 -316h-90q-53 145 -167.5 224t-268.5 79q-117 0 -219 -50t-179 -142t-122 -222t-45 -290q0 -68 18.5 -146.5t66.5 -146t132 -113t215 -45.5q129 0 200.5 52.5t86.5 134.5l14 80 q3 12 3 23q0 32 -21 57q-29 32 -101 36l17 78h544l-16 -78q-80 -4 -117 -39.5t-55 -123.5l-16 -78q-4 -18 -4 -32q0 -30 18 -41q25 -15 51 -7l12 -6l-12 -64q-55 -14 -131 -28.5t-156.5 -25.5t-159.5 -18.5t-143 -7.5q-213 0 -355 56.5t-227 142.5t-121 188.5t-36 196.5z " />
<glyph unicode="H" horiz-adv-x="1642" d="M16 0l17 80h28q86 0 127 41t62 149l151 744q7 36 7 65q0 43 -16 70q-27 45 -124 45h-35l17 80h663l-16 -80h-33q-100 0 -142 -40t-58 -124l-66 -317h627l61 301q8 37 8 66q0 47 -20 73q-32 41 -121 41h-29l17 80h639l-17 -80h-22q-158 0 -191 -150l-159 -788 q-7 -37 -7 -66q0 -42 15 -67q26 -43 112 -43h52l-17 -80h-663l16 80h31q53 0 88 11t57.5 33.5t35.5 58.5t24 85l67 326h-627l-69 -340q-7 -34 -7 -61q-1 -46 19 -72q30 -41 109 -41h45l-17 -80h-639z" />
<glyph unicode="I" horiz-adv-x="768" d="M16 0l17 80h22q92 0 134 40t65 150l152 744q7 35 7 63q1 44 -17 72q-28 45 -126 45h-37l17 80h647l-16 -80q-100 0 -148.5 -41t-60.5 -102l-162 -795q-7 -35 -7 -63q1 -43 17 -69q28 -44 111 -44h65l-16 -80h-664z" />
<glyph unicode="J" horiz-adv-x="724" d="M-326 -397q0 10 13.5 39.5t35 60.5t49 55.5t56.5 24.5q35 0 64.5 -20.5t57 -46t55.5 -46t58 -20.5q49 0 74 56t49 198l187 1110q5 33 5 60q0 52 -20 79q-32 41 -125 41h-32l16 80h657l-16 -80h-31q-96 0 -137 -41t-53 -113l-152 -909q-27 -154 -70.5 -262.5 t-121.5 -185.5q-78 -78 -178.5 -119t-235.5 -41q-88 0 -146.5 22.5t-58.5 57.5z" />
<glyph unicode="K" horiz-adv-x="1515" d="M37 0l16 80h17q86 0 127 43t59 137l154 754q8 37 8 66q0 47 -20 73q-32 41 -124 41h-41l17 80h674l-17 -80h-43q-158 0 -188 -145l-76 -371l549 358q47 31 62.5 49.5t15.5 38.5q0 35 -25.5 51.5t-73.5 18.5l17 80h545l-17 -80q-123 -14 -235.5 -77.5t-245.5 -151.5 l-311 -207l360 -498q37 -51 67.5 -84t61.5 -53.5t65.5 -29.5t82.5 -13l-17 -80h-385l-450 618l-91 -59l-63 -313q-6 -30 -6 -54q0 -46 20 -72q30 -40 109 -40h45l-16 -80h-627z" />
<glyph unicode="L" horiz-adv-x="1236" d="M23 0l16 80h22q92 0 130 48t61 159l147 727q6 34 6 61q0 43 -15 72q-25 47 -124 47h-39l17 80h676l-17 -80h-49q-80 0 -129 -38t-63 -126l-164 -803q-5 -21 -5 -39q1 -44 29 -68q40 -34 111 -34h147q123 0 221.5 54.5t186.5 156.5h82l-94 -297h-1153z" />
<glyph unicode="M" horiz-adv-x="1835" d="M8 0l17 80q43 6 75.5 22.5t57 47t44 76.5t38.5 114l186 690q9 30 9 55q0 42 -25 66q-39 39 -154 43l16 80h488l153 -940l615 940h444l-16 -80q-96 -4 -145.5 -35t-63.5 -100l-170 -836q-4 -20 -4 -37q0 -54 38 -76q50 -30 142 -30h10l-16 -80h-639l16 80q49 0 83 10 t57.5 33.5t38 61.5t26.5 96l160 774l-4 2l-684 -1057h-88l-174 1096h-4l-216 -781q-12 -44 -12 -80q0 -13 2 -25q6 -44 28.5 -72.5t58.5 -43t79 -14.5l-16 -80h-451z" />
<glyph unicode="N" horiz-adv-x="1579" d="M49 0l17 80q70 0 116.5 54t69.5 157l164 803q-37 53 -73 74.5t-101 25.5l16 80h338l686 -948l127 626q10 52 10 92q0 56 -20 88q-35 56 -148 62l17 80h446l-16 -80q-86 -14 -132 -75.5t-69 -166.5l-197 -962h-88l-729 1011l-143 -706q-5 -27 -5 -51q1 -54 25 -94 q36 -60 152 -70l-16 -80h-447z" />
<glyph unicode="O" horiz-adv-x="1685" d="M180 578q0 141 47 265t156 232q125 125 275.5 176.5t324.5 51.5q158 0 283 -48.5t211 -132.5t132 -196.5t46 -241.5q0 -150 -59.5 -280t-164 -226t-249 -151.5t-314.5 -55.5q-178 0 -308 57.5t-215 145.5t-125 196t-40 208zM463 481q0 -94 26.5 -172t75.5 -133t122 -86 t165 -31q152 0 251 76t159.5 187.5t85 237.5t24.5 224q0 100 -27.5 180t-77.5 135.5t-120 85t-154 29.5q-117 0 -214 -54t-167.5 -152.5t-109.5 -232.5t-39 -294z" />
<glyph unicode="P" horiz-adv-x="1300" d="M18 0l17 80h12q86 0 131 39t64 131l157 766q9 39 9 69q0 48 -23 71q-37 38 -125 38h-39l17 80h636q223 0 346 -93.5t123 -265.5q0 -98 -38.5 -183t-107.5 -146.5t-161 -97t-200 -35.5q-43 0 -85 4t-71 14l14 78q29 -4 56 -4q66 1 114 25q68 34 110 95.5t59.5 137.5 t17.5 143q0 129 -58.5 185.5t-173.5 56.5h-127l-190 -932q-7 -37 -7 -66q1 -44 17 -69q28 -41 111 -41h61l-16 -80h-650z" />
<glyph unicode="Q" horiz-adv-x="1685" d="M180 588q0 131 51.5 259t151.5 229.5t249.5 164t348.5 62.5q152 0 275.5 -46.5t213 -128t137.5 -195.5t48 -249q0 -123 -41 -234.5t-117 -202.5t-180.5 -156.5t-233.5 -96.5q133 -106 221.5 -154.5t165.5 -48.5q76 0 140 49l51 -69q-78 -66 -158 -99.5t-180 -33.5 q-84 0 -190.5 41.5t-210 101t-191.5 124t-135 109.5q-94 31 -171 87.5t-131 132t-84 165.5t-30 189zM463 481q0 -94 26.5 -172t75.5 -133t122 -86t165 -31q152 0 251 76t159.5 187.5t85 237.5t24.5 224q0 100 -27.5 180t-77.5 135.5t-120 85t-154 29.5q-117 0 -214 -54 t-167.5 -152.5t-109.5 -232.5t-39 -294z" />
<glyph unicode="R" horiz-adv-x="1409" d="M31 0l16 80h14q84 0 125 41t62 139l153 754q7 36 7 64q0 45 -18 72q-28 44 -126 44h-10l14 80h547q139 0 231.5 -32t147.5 -79t78.5 -104.5t23.5 -110.5q0 -117 -89 -213t-242 -149q80 -272 185 -398.5t251 -126.5h16l-43 -77q-29 -2 -57 -2q-103 0 -183 24 q-102 30 -179.5 98t-134 177.5t-99.5 259.5q-37 -4 -80 -5h-12q-36 0 -66 5l-59 -285q-7 -34 -7 -62q-1 -43 17 -70q28 -44 113 -44h61l-16 -80h-641zM580 631q16 -4 30.5 -4h22.5q72 0 137.5 20.5t116.5 61.5t80.5 102t29.5 143q0 119 -58 176.5t-187 57.5h-58z" />
<glyph unicode="S" horiz-adv-x="1067" d="M72 80l84 326h80q4 -166 81.5 -256.5t219.5 -90.5q53 0 100 15.5t82 41t54.5 61.5t19.5 75q0 49 -37 97t-92.5 99.5t-121 105.5t-120.5 113.5t-92 125t-37 137.5q0 76 30.5 143.5t84 118.5t123 81t147.5 30q41 0 75.5 -7.5t67.5 -16.5t63.5 -17.5t63.5 -8.5t51.5 8.5 t36.5 28.5h64l-56 -366h-81q-6 63 -31 116.5t-61.5 92t-84 60t-100.5 21.5q-82 0 -140.5 -49t-58.5 -118q0 -47 38 -96.5t96.5 -101.5t125 -108.5t125 -117t96.5 -128t38 -143.5q0 -86 -39 -156.5t-104.5 -119.5t-152.5 -77t-184 -28q-119 0 -239.5 29t-214.5 80z" />
<glyph unicode="T" horiz-adv-x="1429" d="M209 983l74 365h59q8 -43 25.5 -58.5t87.5 -15.5h923q70 0 100.5 15.5t47.5 58.5h69l-73 -365h-84q-10 104 -55.5 154.5t-139.5 50.5h-201l-192 -955q-5 -26 -5 -47q1 -46 23 -70q34 -36 107 -36h53l-16 -80h-670l16 80h43q96 0 136.5 45t60.5 143l186 920h-159 q-68 0 -116 -12.5t-87 -37t-71 -63.5t-62 -92h-80z" />
<glyph unicode="U" horiz-adv-x="1536" d="M211 1194l16 80h627l-16 -80q-92 0 -142.5 -35t-66.5 -121l-119 -585q-17 -87 -17 -147v-17q3 -64 58 -119q53 -53 123.5 -74.5t148.5 -21.5q199 0 324 125q53 53 92 145t59 215l68 397q6 37 6 68q0 12 -1 22q-3 39 -22.5 69t-60.5 48.5t-106 30.5l16 80h473l-16 -80 q-86 -10 -134 -65.5t-65 -153.5l-65 -395q-23 -135 -61 -246t-130 -203q-84 -84 -181 -122t-241 -38q-174 0 -274.5 41t-157.5 99q-76 75 -96 159q-9 38 -8 83q0 53 12 114l113 547q6 32 6 59q1 43 -15 73q-26 48 -125 48h-22z" />
<glyph unicode="V" horiz-adv-x="1386" d="M248 1194l16 80h574l-17 -80q-61 0 -97 -11.5t-55.5 -32t-25.5 -46t-6 -55.5l-29 -783l4 -4l650 756q23 25 37 49.5t14 50.5q0 38 -33 58q-30 19 -80 18h-10l16 80h428l-16 -80q-25 -4 -46.5 -10t-49 -24.5t-66.5 -55.5t-96 -105l-885 -1028h-127l35 1069v13 q-1 46 -13 73q-14 31 -35.5 46.5t-46 18.5t-40.5 3z" />
<glyph unicode="W" horiz-adv-x="2177" d="M272 1194l17 80h594l-17 -80q-100 0 -143 -27.5t-47 -115.5l-45 -752l4 -4l588 733q2 31 0 58.5t-14.5 51t-39 39t-73.5 17.5l16 80h561l-16 -80q-55 0 -88 -9t-52.5 -28.5t-26.5 -50.5t-11 -74l-47 -735l4 -4l551 688q23 29 39 57.5t16 59.5q0 33 -15.5 51t-36 28.5 t-43 13.5t-36.5 3l16 80h477l-16 -80q-33 -2 -65.5 -13.5t-69.5 -40t-84 -78.5t-113 -130l-776 -961h-125l55 897l-4 4l-719 -901h-131l68 1053q1 15 1 28q1 68 -25 97q-30 35 -128 45z" />
<glyph unicode="X" horiz-adv-x="1556" d="M20 0l17 80q86 4 154.5 43t130.5 100l432 400l-269 442q-25 39 -47 63.5t-49 39t-59.5 20.5t-75.5 6l16 80h652l-17 -80h-24q-77 0 -103 -39q-12 -19 -13 -39q0 -22 15 -45l162 -270l275 258q37 34 37 67q0 12 -4 24q-18 44 -105 44h-21l17 80h518l-17 -80 q-104 0 -197 -62.5t-204 -166.5l-254 -238l326 -537q31 -53 69.5 -81.5t92.5 -28.5h22l-16 -80h-574l17 80q72 2 91 46q6 14 6 30q0 35 -28 82l-192 309l-301 -277q-41 -39 -53.5 -72.5t-2 -60t40 -42t72.5 -15.5h12l-16 -80h-533z" />
<glyph unicode="Y" d="M197 1194l16 80h526l-16 -80q-84 -2 -97 -30q-4 -9 -4 -21q0 -23 15 -53l215 -463l365 411q31 35 31 69q0 14 -6 27q-17 48 -120 60l17 80h411l-16 -80q-59 -23 -114.5 -71t-131.5 -134l-411 -465l-58 -286q-5 -27 -5 -48q0 -46 22 -72q34 -38 106 -38h80l-16 -80h-682 l16 80h31q96 0 137 49t63 162l47 233l-262 568q-29 59 -60.5 80.5t-98.5 21.5z" />
<glyph unicode="Z" d="M33 0v86l1059 1102h-301q-147 0 -244.5 -68.5t-159.5 -191.5h-78l70 346h1077v-74l-1073 -1114h432q135 0 250 81t192 208h84l-106 -375h-1202z" />
<glyph unicode="[" horiz-adv-x="747" d="M106 -465l375 1835h465l-16 -80h-105q-68 0 -112.5 -39t-61.5 -116l-276 -1364q-31 -156 108 -156h105l-17 -80h-465z" />
<glyph unicode="\" horiz-adv-x="618" d="M74 1303h166l452 -1340h-166z" />
<glyph unicode="]" horiz-adv-x="747" d="M-121 -465l17 80h104q68 0 113 39t61 117l275 1364q31 156 -109 155h-104l16 80h465l-373 -1835h-465z" />
<glyph unicode="^" horiz-adv-x="1173" d="M188 651l408 719h82l407 -719h-170l-278 494l-279 -494h-170z" />
<glyph unicode="_" horiz-adv-x="1024" d="M-16 -154h1056v-102h-1056v102z" />
<glyph unicode="`" horiz-adv-x="681" d="M258 1315h240l137 -338h-152z" />
<glyph unicode="a" horiz-adv-x="937" d="M61 176q0 100 46.5 223t177.5 254q63 61 123.5 101.5t128 64t146.5 31.5t177 8l-135 -659q-8 -35 -8 -56.5t16 -21.5q8 0 25.5 11t38 29.5t41 40t36.5 40.5v-68q-78 -84 -155.5 -140.5t-136.5 -56.5q-41 0 -61.5 32t-20.5 91q0 29 2 51.5t12 77.5h-4q-49 -49 -94 -95 t-85 -81t-73 -55.5t-55 -20.5q-18 0 -42 11.5t-46.5 35t-38 61.5t-15.5 91zM252 307q0 -63 22.5 -102t61.5 -39q35 0 83 42t111 107l84 418q-78 0 -133 -23.5t-102 -70.5q-27 -27 -49.5 -65.5t-40 -83t-27.5 -92.5t-10 -91z" />
<glyph unicode="b" horiz-adv-x="917" d="M115 242l186 917q6 29 2 46.5t-27 17.5q-10 0 -20 -3t-33 -16l-22 45l272 107q23 8 32 12t14 6t7 2h9q18 0 18 -32q0 -19 -6 -48l-139 -694l4 -4q43 49 86 96t84 83t76.5 58.5t60.5 22.5q33 0 57.5 -32.5t39.5 -79t23.5 -96.5t8.5 -83q0 -117 -42 -223t-113.5 -187 t-165 -130.5t-195.5 -49.5q-43 0 -88 16.5t-78 48.5q-34 32 -50 82q-9 26 -8 57q0 29 7 61zM319 164q-4 -18 -4 -36q-1 -28 9 -54q16 -43 61 -43q47 0 88 49t74 124t51 167t18 178q0 51 -8 79.5t-28 28.5q-12 0 -35 -13t-49.5 -36.5t-55 -53.5t-55.5 -60z" />
<glyph unicode="c" horiz-adv-x="681" d="M66 217q0 78 33.5 188.5t99 211t160 171t216.5 70.5q59 0 95.5 -28.5t36.5 -79.5q0 -49 -30 -79t-77 -30q-37 0 -58.5 14.5t-38 32t-31.5 31.5t-40 14q-43 0 -69.5 -52t-43 -122t-22.5 -140.5t-6 -107.5q0 -211 135 -211q45 0 95 31t87 82l37 -31q-57 -94 -151.5 -149.5 t-194.5 -55.5q-111 0 -172 64.5t-61 175.5z" />
<glyph unicode="d" horiz-adv-x="917" d="M66 225q0 127 52 241t124.5 202t148.5 139t123 51q59 0 111 -51l69 348q4 27 0 43t-26 16q-12 0 -29.5 -7t-34.5 -13l-22 45l290 119q12 4 29 11t27 7q16 0 19 -17.5t-3 -45.5l-227 -1137q-8 -41 14 -41q10 0 37 23.5t61 70.5l37 -30q-29 -39 -64.5 -79t-73.5 -72 t-76 -51.5t-70 -19.5q-92 0 -93 117q0 12 5.5 54t19.5 104h-6q-29 -41 -67 -88t-77.5 -88t-79.5 -68.5t-71 -27.5q-66 0 -106.5 66.5t-40.5 178.5zM291 281q0 -63 11 -89t38 -26q16 0 39.5 18.5t50.5 47t54.5 66.5t52.5 75l45 223q-37 162 -115 162q-43 0 -77 -56.5 t-55.5 -133t-32.5 -157.5t-11 -130z" />
<glyph unicode="e" horiz-adv-x="768" d="M76 248q0 92 39 199.5t107.5 198.5t162.5 151.5t207 60.5q76 0 121 -41t45 -108q0 -117 -118 -194t-325 -124q-6 -27 -9 -57.5t-3 -59.5q0 -80 44 -126t118 -46q45 0 102.5 22.5t124.5 76.5l27 -37q-43 -33 -93.5 -67t-104.5 -60.5t-109.5 -43t-106.5 -16.5 q-104 0 -166.5 74t-62.5 197zM326 438q245 72 245 267q0 39 -17 63.5t-46 24.5q-31 0 -57.5 -29t-49 -78t-41 -113.5t-34.5 -134.5z" />
<glyph unicode="f" horiz-adv-x="555" d="M-406 -352q0 41 35 71.5t82 30.5t73 -23.5t46 -53t40.5 -53t57.5 -23.5q55 0 91 59t53 164l153 923h-153l10 50q37 0 85 13t77 32q16 109 55 206t101.5 170.5t146.5 117.5t188 44q92 0 142.5 -30.5t50.5 -85.5q0 -45 -32 -76t-79 -31q-43 0 -73.5 22.5t-56 48t-48.5 48 t-49 22.5q-37 0 -54.5 -59t-39.5 -195l-33 -202h147l-20 -95h-146l-112 -673q-20 -117 -63.5 -218.5t-139.5 -197.5q-61 -61 -139 -96t-183 -35q-94 0 -153.5 34.5t-59.5 90.5z" />
<glyph unicode="g" horiz-adv-x="897" d="M-156 -328q0 74 91.5 136.5t265.5 136.5q-16 23 -17 55q0 45 36 80t99 51v4q-92 27 -149 104.5t-57 176.5q0 84 43 163.5t112.5 141t158.5 99.5t183 38q27 0 63 -2t73.5 -5t74.5 -8t64 -9v-119l-119 16q31 -53 41 -89t10 -87q0 -43 -12 -83t-30.5 -72.5t-40 -60.5 t-40.5 -46q-57 -57 -118.5 -87t-111.5 -47.5t-83 -30.5t-33 -36q0 -18 30 -41.5t75 -51.5t96 -58.5t96 -65.5t75 -71.5t30 -77.5q0 -45 -35 -83t-99.5 -65t-153.5 -41t-200 -14q-92 0 -169 11t-132 30.5t-86 47.5t-31 60zM55 -276q0 -72 64.5 -110t183.5 -38q104 0 177 21.5 t73 52.5q0 25 -36 48t-87 53t-106.5 66t-96.5 85q-84 -35 -128 -80t-44 -98zM334 377q0 -72 30.5 -122t75.5 -50q43 0 74 49t50.5 116.5t27.5 138.5t8 116q0 80 -24.5 124t-69.5 44q-41 0 -73 -50.5t-54.5 -119t-33.5 -138t-11 -108.5z" />
<glyph unicode="h" horiz-adv-x="1024" d="M76 59l223 1104q4 23 -2 40.5t-25 17.5q-12 0 -16 -2t-20 -9l-31 -12l-21 45l273 109q16 8 38.5 16t36.5 8q20 0 20.5 -15t-3.5 -40l-164 -817l4 -4q111 158 214.5 258t203.5 100q47 0 77.5 -35t30.5 -92q0 -16 -6 -55t-14 -72l-104 -438q-12 -49 12 -49q14 0 55 41 t84 96l41 -27q-33 -49 -73 -95t-83 -80t-86 -54.5t-79 -20.5q-45 0 -75 33t-30 80q0 18 6 48t17 71l92 389q6 27 6 47q0 47 -35 47q-41 0 -108.5 -77.5t-172.5 -219.5l-71 -354q-6 -29 -17.5 -40t-40.5 -11h-110q-33 0 -45 11t-2 58z" />
<glyph unicode="i" horiz-adv-x="598" d="M63 610q98 131 174 189.5t136 58.5q41 0 64.5 -31.5t23.5 -85.5q0 -23 -5 -58.5t-16 -78.5l-100 -418q-8 -38 -8 -57v-7q2 -18 24 -18q25 0 65 31t79 76l37 -33q-86 -98 -167 -149.5t-147 -51.5q-47 0 -78.5 35t-31.5 88q0 33 12 88.5t37 161.5l63 268q6 29 8.5 50.5 t-18.5 21.5q-18 0 -51 -36t-62 -76zM309 1116q0 78 43 132.5t105 54.5q47 0 76.5 -31t29.5 -84q0 -76 -44 -130t-103 -54q-47 0 -77 31.5t-30 80.5z" />
<glyph unicode="j" horiz-adv-x="555" d="M-270.5 -273.5q32.5 29.5 82.5 29.5q47 0 71.5 -21.5t42 -46t31.5 -46t39 -21.5q29 0 50.5 45t38.5 113.5t32.5 151.5t29.5 157l111 545q4 25 8 40t-12 15t-47 -35t-66 -82l-37 33q88 123 168 188.5t144 65.5q37 0 59.5 -25.5t22.5 -70.5q0 -16 -4.5 -40l-10.5 -56 l-112 -562q-27 -129 -70 -235.5t-102.5 -183t-137 -119.5t-172.5 -43q-192 0 -192 126q0 48 32.5 77.5zM352 1116q0 78 43 132.5t105 54.5q47 0 76.5 -31t29.5 -84q0 -76 -44 -130t-103 -54q-47 0 -77 31.5t-30 80.5z" />
<glyph unicode="k" horiz-adv-x="1024" d="M90 47l225 1118q4 23 -1 38.5t-25 15.5q-10 0 -17.5 -2.5t-23.5 -8.5l-31 -10l-18 43l301 119q10 4 24.5 10t20.5 6q25 0 22.5 -29.5t-6.5 -52.5l-153 -755l4 -4q57 63 113.5 121.5t108.5 103.5t100 71.5t89 26.5q61 0 106.5 -54t45.5 -128q0 -102 -91 -171t-257 -91 q31 -39 55.5 -75t48 -68.5t52 -60.5t69.5 -50l104 102l33 -33l-237 -249q-82 20 -131.5 64t-85 102.5t-68.5 124t-86 128.5l-72 -348q-10 -41 -20 -51t-47 -10h-103q-35 0 -45 11t-4 46zM389 442q33 -6 70 -6q21 0 45 2q62 6 115 28.5t87.5 62t34.5 92.5q0 33 -17 53t-46 20 q-41 0 -106.5 -59.5t-182.5 -192.5z" />
<glyph unicode="l" horiz-adv-x="555" d="M84 94q0 29 3 53.5t11 59.5l191 952q4 18 2 35.5t-25 17.5q-10 0 -30.5 -5t-45.5 -15l-18 45l309 125q14 4 23.5 9t17.5 5q16 0 19.5 -22.5t-0.5 -42.5l-232 -1145q-6 -33 3.5 -46.5t21.5 -13.5q18 0 56 30t77 71l33 -35q-33 -33 -70 -67.5t-78 -63.5t-83 -46.5 t-85 -17.5q-100 0 -100 117z" />
<glyph unicode="m" horiz-adv-x="1536" d="M63 588q100 141 178 205.5t144 64.5q59 0 73 -45q6 -20 7 -49q0 -36 -10 -84l-35 -168l4 -4q106 158 213.5 254t196.5 96q53 0 78.5 -25.5t30.5 -71.5q1 -13 1 -27q0 -36 -9 -84q-13 -66 -38 -148l4 -4q117 172 218.5 266t203.5 94q71 0 91 -60q10 -30 10 -68 q0 -37 -9 -83l-92 -452q-6 -31 -5 -50.5t15 -19.5q16 0 53 37t80 96l39 -27q-86 -129 -170 -191.5t-157 -62.5q-41 0 -66 29t-25 82q0 20 3.5 45t13.5 66l78 381q4 16 6 32.5t2 30.5q0 49 -43 49q-39 0 -96.5 -70.5t-169.5 -226.5l-72 -350q-6 -33 -13.5 -44t-45.5 -11h-107 q-29 0 -44 14t-5 59l108 537q4 20 4 37t-4 29q-8 26 -30 26q-47 0 -116 -84t-159 -213l-71 -350q-8 -35 -18.5 -45t-47.5 -10h-104q-52 0 -52 42q0 8 2 17l119 584q4 16 3 27.5t-15 11.5q-16 0 -48 -36t-65 -77z" />
<glyph unicode="n" horiz-adv-x="1044" d="M59 582q35 55 79 105t89 88t86 60.5t72 22.5q37 0 57.5 -28.5t20.5 -81.5q0 -55 -13.5 -118t-27.5 -126l4 -4q129 186 229.5 272t186.5 86q47 0 74.5 -31.5t27.5 -87.5q0 -16 -3 -38.5t-13 -57.5l-105 -440q-10 -39 -11 -62.5t11 -23.5q14 0 56.5 41t83.5 94l38 -31 q-82 -113 -166.5 -178.5t-156.5 -65.5q-39 0 -65.5 34t-26.5 81q0 18 3 42t13 63l98 424q4 17 4 30q0 35 -29 35h-1q-18 0 -46 -22.5t-63 -62.5t-75.5 -92t-88.5 -114l-67 -327q-10 -53 -21.5 -65.5t-48.5 -12.5h-108q-35 0 -44.5 14t1.5 55l116 566q6 29 8.5 44t-14.5 15 q-31 0 -123 -131z" />
<glyph unicode="o" horiz-adv-x="917" d="M78 270q0 113 47 218.5t125 187.5t178 132t205 50q100 0 159.5 -82t59.5 -219q0 -133 -55.5 -240.5t-138.5 -182.5t-179 -116t-178 -41q-98 0 -160.5 82t-62.5 211zM315 319q0 -111 32 -183.5t81 -72.5q29 0 62.5 36t62.5 97.5t47 145.5t18 178q0 51 -9 97.5t-24.5 81 t-36 55t-42.5 20.5q-31 0 -64.5 -36t-61.5 -98t-46.5 -145.5t-18.5 -175.5z" />
<glyph unicode="p" horiz-adv-x="1003" d="M-141 -465l10 49q100 0 146 38t69 142l168 824q7 31 7 61v7q-1 34 -30 34q-25 0 -58.5 -33.5t-90.5 -113.5l-41 30q43 55 88 107.5t89 91.5t88 62.5t85 23.5q94 0 94 -139q0 -41 -6 -86t-20 -115l4 -4q45 68 91 129.5t90 109.5t83 76.5t68 28.5t56.5 -26.5t49 -69.5 t34.5 -98.5t13 -114.5q0 -127 -45 -232.5t-115.5 -180.5t-155.5 -117t-167 -42q-35 0 -65.5 6.5t-45.5 20.5l-49 -242q-7 -36 -7 -64q0 -50 22 -75q36 -39 149 -39l-10 -49h-598zM383 154q18 -57 43 -82t66 -25q55 0 98 51.5t70.5 123t42 148t14.5 128.5q0 153 -65 153h-1 q-16 0 -39.5 -21.5t-52.5 -56t-61.5 -82t-65.5 -100.5z" />
<glyph unicode="q" horiz-adv-x="917" d="M59 190q0 47 13.5 105.5t41 123t71.5 130t104 125.5q96 96 239 144q119 40 267 40q31 0 63 -2l-227 -1118q-5 -27 -5 -48q0 -49 24 -72q36 -34 161 -34l-10 -49h-608l10 49q53 0 89 9.5t61.5 33t42 64.5t28.5 104l84 406l-4 4q-119 -111 -197 -169.5t-125 -58.5 q-25 0 -47 17.5t-38.5 46.5t-27 67.5t-10.5 81.5zM244 315q0 -70 24.5 -111.5t65.5 -41.5q53 0 190 133l92 446q-84 -4 -139 -22.5t-98 -61.5q-72 -72 -103.5 -160.5t-31.5 -181.5z" />
<glyph unicode="r" horiz-adv-x="681" d="M61 588q92 123 169 196.5t130 73.5q45 0 46 -80q0 -53 -9.5 -110.5t-21.5 -124.5l-43 -224q-4 -41 6 -40q6 0 12 17t19 64l39 123q55 176 110 275.5t144 99.5q73 0 73 -88q0 -74 -31.5 -126t-76.5 -52q-23 0 -47 1h-2q-24 0 -58 -34q-27 -27 -51.5 -79t-46 -116.5 t-38.5 -134t-32 -133.5l-14 -65q-6 -35 -22.5 -44.5t-41.5 -9.5h-92q-41 0 -53 15.5t-4 58.5l96 551q4 25 8 52.5t-16 27.5q-6 0 -20.5 -14.5t-32 -34t-33.5 -41t-27 -35.5z" />
<glyph unicode="s" horiz-adv-x="704" d="M18 115q0 45 33 77.5t78 32.5q43 0 72.5 -23.5t59.5 -51t62.5 -51t77.5 -23.5q25 0 43.5 18.5t18.5 40.5q0 47 -45 94t-100.5 101.5t-100.5 117t-45 138.5q0 55 26.5 104t71.5 86t105.5 59.5t126.5 22.5q72 0 117 -38t45 -97q0 -49 -30 -81t-75 -32q-47 0 -68.5 24.5 t-35 53.5t-27.5 53.5t-47 24.5q-23 0 -38 -17.5t-15 -41.5q0 -55 41 -103.5t90 -99.5t90 -106.5t41 -125.5q0 -66 -26.5 -120t-76 -93t-117 -60.5t-149.5 -21.5q-96 0 -149.5 36t-53.5 102z" />
<glyph unicode="t" horiz-adv-x="618" d="M125 152l121 591h-101l9 45q102 35 190 115t180 207h54q-29 -61 -50.5 -124.5t-44.5 -147.5h162l-18 -95h-162l-119 -577q-6 -29 5 -47.5t32 -18.5q20 0 66.5 35t91.5 86l37 -39q-80 -92 -175.5 -148.5t-171.5 -56.5q-57 1 -89 45q-22 30 -22 78q0 24 5 52z" />
<glyph unicode="u" horiz-adv-x="1024" d="M66 610q90 125 164.5 186.5t144.5 61.5q51 0 73 -43q14 -28 13 -62q0 -19 -4 -40l-88 -430q-7 -30 -7 -48q0 -9 2 -15q5 -18 19 -19q12 0 53 40t88 102.5t89 137t57 144.5l39 184q4 23 15 30t44 7h104q37 0 47.5 -12.5t2.5 -47.5l-119 -589q-4 -23 -3 -31t13 -8 q4 0 19.5 11t35 28.5t41 38t35.5 38.5l35 -32q-43 -49 -92 -96.5t-96.5 -84t-90.5 -60.5t-71 -24q-37 0 -57 38q-12 24 -12 55q0 20 5 43l62 295l-4 4q-49 -78 -109.5 -156t-120 -139.5t-113 -100.5t-90.5 -39q-73 0 -73 96q0 22 3 52.5t13 69.5l86 426q8 39 9 59t-17 20 q-14 0 -42 -34.5t-65 -83.5z" />
<glyph unicode="v" horiz-adv-x="874" d="M66 612q37 49 72.5 93.5t72.5 78t75 54t74 20.5q47 0 76 -34q19 -22 19 -64q0 -24 -6 -55l-84 -494q-7 -35 -7 -56q0 -11 2 -17q5 -20 21 -19q27 0 77 50t99 123t86 153.5t37 142.5q0 33 -14.5 45t-31 18t-30.5 16.5t-14 41.5q0 29 13 55.5t36 48t51.5 33.5t59.5 12 q59 0 94 -40t35 -111q0 -111 -73 -225.5t-194 -235.5q-123 -123 -226 -196t-159 -73q-41 0 -66.5 27t-25.5 86q0 25 3 59.5t9 73.5l72 422q4 29 4 42t-12 13q-16 0 -48 -37.5t-61 -78.5z" />
<glyph unicode="w" d="M61 596q37 51 73 98t72 84t73.5 58.5t78.5 21.5q92 0 93 -106q0 -16 -2.5 -34t-6.5 -48l-77 -457q-2 -14 -1 -32.5t23 -18.5q16 0 48 27.5t71 72.5t79 99.5t72 107.5l50 319q4 29 16 43.5t45 14.5h100q47 0 55.5 -16.5t0.5 -61.5l-99 -582q-6 -37 1.5 -52t29.5 -15 q37 0 92.5 50t107.5 121.5t89 151.5t37 138q0 35 -14.5 49t-33 22t-33 18.5t-14.5 37.5q0 29 14.5 55t37 47.5t51.5 35t59 13.5q55 0 92 -42t37 -105q0 -190 -266 -457q-276 -276 -405 -277q-49 0 -77 37t-28 103q0 33 8 94t25 139l-4 4q-49 -68 -100.5 -134t-103.5 -120.5 t-104.5 -88.5t-101.5 -34q-59 0 -79 42q-12 24 -12 63q0 31 7 72l84 503q4 16 3 27.5t-15 11.5q-6 0 -18.5 -12t-28 -31.5t-31.5 -42t-29 -43.5z" />
<glyph unicode="x" horiz-adv-x="1024" d="M43 78q0 41 16.5 98t42.5 100h41q20 -73 78 -73h2q113 0 207 155l-111 258q-18 43 -33.5 60.5t-33.5 17.5q-23 0 -42.5 -20.5t-41.5 -69.5l-41 21q61 125 114.5 179t114.5 54q72 0 117 -71.5t102 -237.5q94 152 171 230.5t133 78.5q41 0 71.5 -39t30.5 -92 q0 -63 -31 -123h-47q-27 53 -84 53q-119 0 -219 -155l102 -246q35 -86 76 -86q23 0 42.5 24.5t43.5 81.5l47 -24q-63 -147 -115.5 -208.5t-117.5 -61.5q-47 0 -78 27.5t-54.5 73.5t-44 103.5t-48.5 116.5q-35 -49 -75 -105.5t-83 -105.5t-87 -82t-87 -33q-35 0 -56.5 27 t-21.5 74z" />
<glyph unicode="y" horiz-adv-x="937" d="M-74 -465l11 49h28q37 0 65.5 8.5t57.5 36.5q14 14 47 68.5t65.5 134.5t57.5 176t25 197q0 102 -7.5 192t-20.5 157t-31.5 105.5t-41.5 38.5q-43 0 -102 -92l-43 27q59 102 134 163.5t148 61.5q53 0 86 -61.5t51.5 -151.5t25.5 -191.5t7 -179.5q0 -51 -2 -103t-6 -130 l4 -4q43 90 80 176t64.5 159.5t43 135t15.5 102.5q0 20 -7 32.5t-16.5 24t-16.5 26t-7 38.5q0 53 40 90t99 37q51 0 85 -32.5t34 -82.5q0 -51 -40 -129.5t-95 -171t-114.5 -189.5t-100.5 -183q-49 -109 -85 -186t-59.5 -128t-34 -80.5t-10.5 -42.5q0 -49 70 -49h31l-10 -49 h-525z" />
<glyph unicode="z" horiz-adv-x="1003" d="M41 37q0 104 94 199q53 53 153.5 107t207 106.5t202 102.5t138.5 93q16 16 32.5 35.5t22.5 36.5q-100 -53 -189.5 -80t-158.5 -27q-55 0 -92 13.5t-64 29t-51.5 28.5t-54.5 13q-29 0 -49.5 -11t-53.5 -44l-39 33q145 186 291 186q51 0 93 -19.5t82 -42t82 -42t93 -19.5 q49 0 65.5 19.5t22.5 42.5t13.5 42t38.5 19q49 0 49 -57q0 -37 -20.5 -85t-67.5 -95q-90 -90 -212 -158t-234.5 -121t-196.5 -98t-103 -92q74 29 166 55t164 26q55 0 96 -12t75 -27.5t63.5 -27.5t62.5 -12q29 0 59.5 20.5t48.5 50.5l41 -28q-57 -100 -136 -160t-171 -60 q-61 0 -111.5 23t-96.5 49.5t-91 49t-94 22.5t-58.5 -21.5t-9.5 -50.5q2 -27 -3 -49.5t-46 -22.5q-53 0 -53 60z" />
<glyph unicode="{" horiz-adv-x="704" d="M158 416v67q49 4 86 25.5t61.5 53.5t36.5 70t12 75q0 47 -8 91t-18 85t-18.5 81t-8.5 80q0 47 21.5 104.5t70.5 108t128 85t192 34.5v-47q-55 -8 -92 -28.5t-59.5 -48t-33 -58.5t-10.5 -57q0 -45 7 -86t18 -84q10 -41 16 -85t6 -91q0 -57 -23.5 -111.5t-65.5 -99.5 t-102.5 -78t-133.5 -49v-4q74 -16 134 -49t102 -78.5t65.5 -99.5t23.5 -113q0 -47 -6 -90.5t-16 -86.5q-10 -41 -17.5 -83t-7.5 -87q0 -27 10.5 -57.5t33 -58t59 -48t92.5 -28.5v-47q-113 0 -192 34.5t-128 85t-70.5 107.5t-21.5 105q0 43 8 82.5t19 80.5q10 41 18 84t8 91 q0 37 -12 74.5t-36.5 69.5t-61.5 53.5t-86 25.5z" />
<glyph unicode="|" horiz-adv-x="1159" d="M469 -276v1579h160v-1579h-160z" />
<glyph unicode="}" horiz-adv-x="704" d="M156 -430q55 8 92 28.5t59.5 48t32.5 58.5t10 57q0 45 -7 87t-17 83q-10 43 -16.5 86t-6.5 91q0 59 23.5 113t65.5 99.5t102.5 78t134.5 49.5v4q-74 16 -134.5 49t-102.5 78t-65.5 99t-23.5 112q0 47 6 91t17 85q10 43 17 84t7 86q0 27 -10 57.5t-32.5 58t-59.5 48 t-92 28.5v47q115 0 192.5 -34.5t126.5 -85t70.5 -107.5t21.5 -105q0 -41 -8 -80.5t-18 -80.5t-18.5 -85t-8.5 -91q0 -37 12.5 -75t37 -70t61.5 -53.5t86 -25.5v-67q-49 -4 -86 -25.5t-61.5 -53.5t-37 -70t-12.5 -74q0 -47 8 -90.5t19 -84.5q10 -41 18 -80.5t8 -82.5 q0 -47 -21.5 -104.5t-70.5 -108t-127 -85t-192 -34.5v47z" />
<glyph unicode="~" horiz-adv-x="1173" d="M74 457q4 102 27.5 171.5t63.5 111.5t95 60.5t121 18.5q78 0 161 -24.5t160 -53.5q78 -29 145.5 -53t113.5 -24q86 0 120.5 34.5t42.5 120.5h80q-2 -102 -27.5 -171.5t-66.5 -111.5t-97.5 -60.5t-123.5 -18.5q-84 0 -160 26.5t-154 59.5q-74 31 -138 58.5t-122 27.5 q-84 0 -116.5 -45t-44.5 -127h-80z" />
<glyph unicode="&#xa1;" horiz-adv-x="661" d="M53 -447.5q-16 29.5 2 85.5l287 833h70l-78 -862q-4 -49 -22.5 -67.5t-69.5 -18.5h-107q-66 0 -82 29.5zM289 686q0 66 41 113t106 47q47 0 86 -35t39 -100q0 -61 -43 -109.5t-106 -48.5q-57 0 -90 37t-33 96z" />
<glyph unicode="&#xa2;" horiz-adv-x="681" d="M66 219q0 84 34.5 192.5t99 206t157 166t204.5 72.5l109 363h57l-109 -363q88 -20 89 -106q0 -70 -48.5 -95.5t-103.5 -5.5l-164 -545q59 -10 118.5 24t98.5 85l37 -31q-47 -78 -124 -131t-163 -67l-116 -396h-58l115 392q-117 0 -175 66.5t-58 172.5zM293 315 q0 -131 53 -182l162 549q-29 29 -41 40t-35 11q-39 0 -66.5 -49t-43 -116.5t-22.5 -138.5t-7 -114z" />
<glyph unicode="&#xa3;" horiz-adv-x="1556" d="M43 -385q0 35 26.5 76t75 77.5t113 64.5t137.5 34q23 59 51.5 130t49.5 130h-303l16 80h313q111 352 236 592.5t286 402.5q84 84 171.5 129t211.5 45q106 0 170 -41t64 -108q0 -51 -31 -85t-78 -34q-49 0 -76.5 28.5t-49 63.5t-47 63.5t-72.5 28.5q-27 0 -45.5 -9 t-30.5 -21q-51 -51 -102.5 -165t-109.5 -259.5t-129 -310.5t-163 -320h324l-17 -80h-354q-43 -76 -79 -138.5t-79 -121.5q84 4 159 -31t141.5 -78t126 -79.5t112.5 -36.5q33 0 53.5 19.5t20.5 47.5q0 25 -9.5 44.5t-21.5 39t-21.5 40t-9.5 48.5q0 49 33 82t82 33 q55 0 88 -39t33 -104q0 -47 -19.5 -102.5t-63.5 -104.5t-113 -82t-167 -33q-94 0 -164.5 25.5t-130 60.5t-112 72t-111.5 59q-92 -104 -167 -161.5t-128 -57.5q-39 0 -64.5 24.5t-25.5 61.5z" />
<glyph unicode="&#xa4;" d="M182 274l129 127q-47 68 -66.5 129.5t-19.5 137.5q0 74 19.5 135t66.5 131l-129 127l107 106l129 -129q72 47 132 66.5t132 19.5q76 0 136.5 -19.5t131.5 -66.5l127 129l105 -106l-127 -129q47 -68 66.5 -130.5t19.5 -135.5q0 -74 -19.5 -135.5t-66.5 -129.5l127 -127 l-105 -106l-127 127q-70 -47 -130 -66.5t-134 -19.5q-76 0 -138.5 20.5t-129.5 65.5l-129 -127zM375 668q0 -63 24.5 -119.5t66.5 -98.5t98.5 -67t119.5 -25t118.5 25t97.5 67t66.5 98t24.5 120q0 63 -24.5 118.5t-66.5 97.5t-97 66.5t-119 24.5q-63 0 -119.5 -24.5 t-98.5 -66.5t-66.5 -97.5t-24.5 -118.5z" />
<glyph unicode="&#xa5;" horiz-adv-x="1024" d="M-29 522l17 80h426l-121 260h-283l17 80h229l-70 150q-29 61 -60.5 81.5t-98.5 20.5l16 80h526l-16 -80q-84 -2 -96.5 -29.5t10.5 -74.5l65 -148h433l82 96q45 53 27.5 98.5t-122.5 57.5l17 80h411l-16 -80q-76 -29 -147.5 -101.5t-139.5 -150.5h234l-17 -80h-288 l-230 -260h498l-17 -80h-550l-58 -284q-16 -82 17.5 -120t105.5 -38h80l-16 -80h-682l16 80h31q96 0 137 49t63 162l48 231h-478zM569 862l113 -248l213 248h-326z" />
<glyph unicode="&#xa6;" horiz-adv-x="1159" d="M469 -276v671h160v-671h-160zM469 633v670h160v-670h-160z" />
<glyph unicode="&#xa7;" horiz-adv-x="917" d="M-158 -356q0 37 27 69.5t72 32.5q37 0 64.5 -15.5t55 -34t59.5 -33.5t77 -15q82 0 129 62.5t47 168.5q0 96 -36 190.5t-78 189.5t-78 194.5t-36 205.5q0 119 56.5 246t148.5 231.5t212 172t249 67.5q104 0 164.5 -34.5t60.5 -90.5q0 -41 -31.5 -70.5t-72.5 -29.5 q-43 0 -74 18.5t-55.5 40t-49 39t-55.5 17.5q-76 0 -121 -67.5t-45 -176.5q0 -94 37 -190.5t82 -193.5t82 -191.5t37 -186.5q0 -133 -60.5 -260t-172.5 -240q-117 -117 -227.5 -177t-250.5 -60q-98 0 -157.5 28.5t-59.5 92.5zM281 688q0 -102 40.5 -204.5t85 -205t73 -207 t3.5 -210.5l4 -4q78 92 113 175t35 175q0 104 -41 200.5t-87 195.5t-79 207t-14 232l-4 5q-66 -90 -97.5 -181.5t-31.5 -177.5z" />
<glyph unicode="&#xa8;" horiz-adv-x="681" d="M170 1147q0 49 35 84t84 35t85 -35t36 -84t-36 -85t-85 -36t-84 36t-35 85zM571 1147q0 49 35 84t84 35t85 -35t36 -84t-36 -85t-85 -36t-84 36t-35 85z" />
<glyph unicode="&#xa9;" horiz-adv-x="1536" d="M59 678q0 147 55.5 276t151.5 225.5t225.5 151.5t276.5 55t276.5 -55t225.5 -151.5t151.5 -225.5t55.5 -276t-55.5 -276.5t-151.5 -225.5t-225.5 -151.5t-276.5 -55.5t-276.5 55.5t-225.5 151.5t-151.5 225t-55.5 277zM147 678q0 -129 49.5 -241.5t133.5 -196.5 t196.5 -133.5t241.5 -49.5t241.5 49.5t196.5 133.5t133.5 196.5t49.5 241.5t-49.5 241.5t-133.5 196.5t-196.5 133t-241.5 49t-241.5 -49t-196.5 -133t-133.5 -196.5t-49.5 -241.5zM336 668q0 96 32.5 176t91 139t139.5 92t175 33q49 0 88 -8t69 -18.5t51.5 -18.5t35.5 -8 q39 0 47 51h39v-264h-39q-20 102 -86 159.5t-160 57.5q-123 0 -191.5 -97.5t-68.5 -271.5q0 -104 22.5 -175t58.5 -115t82 -62.5t93 -18.5q76 0 138.5 34t121.5 106v-72q-123 -127 -319 -127q-92 0 -170 29.5t-133.5 84t-86 129.5t-30.5 165z" />
<glyph unicode="&#xaa;" horiz-adv-x="724" d="M229 895q0 74 37 149.5t104.5 135t164 94.5t215.5 29l-88 -398q-8 -43 9 -44t87 71v-41q-49 -53 -100.5 -85t-86.5 -32q-53 0 -53 78q0 29 3 39t7 27l-4 4q-74 -68 -122 -107t-76 -39q-29 0 -63 29t-34 90zM354 973q0 -76 56 -76q20 0 55 29.5t76 64.5l43 226 q-57 -2 -101.5 -27t-72 -60.5t-42 -77.5t-14.5 -79z" />
<glyph unicode="&#xab;" horiz-adv-x="874" d="M76 459l383 372h69l-223 -372l27 -371h-66zM502 457l315 352h68l-160 -352l-12 -346h-60z" />
<glyph unicode="&#xac;" d="M186 827v156h1094v-627h-156v471h-938z" />
<glyph unicode="&#xad;" horiz-adv-x="854" d="M68 313l41 205h708l-41 -205h-708z" />
<glyph unicode="&#xae;" horiz-adv-x="1536" d="M59 678q0 147 55.5 276t151.5 225.5t225.5 151.5t276.5 55t276.5 -55t225.5 -151.5t151.5 -225.5t55.5 -276t-55.5 -276.5t-151.5 -225.5t-225.5 -151.5t-276.5 -55.5t-276.5 55.5t-225.5 151.5t-151.5 225t-55.5 277zM147 678q0 -129 49.5 -241.5t133.5 -196.5 t196.5 -133.5t241.5 -49.5t241.5 49.5t196.5 133.5t133.5 196.5t49.5 241.5t-49.5 241.5t-133.5 196.5t-196.5 133t-241.5 49t-241.5 -49t-196.5 -133t-133.5 -196.5t-49.5 -241.5zM373 281v32q61 -2 82.5 26t21.5 112v473q0 78 -16.5 102.5t-71.5 28.5v35h399 q168 0 243 -64.5t75 -155.5q0 -76 -46 -129t-132 -77l135 -250q27 -49 50.5 -72t55.5 -29v-32h-241l-207 368h-45v-198q0 -43 4 -69t17.5 -41t37 -20.5t62.5 -7.5v-32h-424zM676 700q109 -18 162 37.5t53 139.5q0 86 -45 128t-121 42h-49v-347z" />
<glyph unicode="&#xaf;" horiz-adv-x="681" d="M201 1061l43 176h647l-43 -176h-647z" />
<glyph unicode="&#xb0;" horiz-adv-x="811" d="M162 961q0 72 27.5 134t74.5 109t109.5 75t134.5 28t134.5 -28t109.5 -75t74.5 -109.5t27.5 -133.5q0 -72 -27.5 -134.5t-74.5 -109.5t-109.5 -75t-134.5 -28t-134.5 28t-109.5 75t-74.5 109.5t-27.5 134.5zM293 961q0 -45 17.5 -84t46 -68t67.5 -46.5t84 -17.5t84 17.5 t68.5 46.5t46 67.5t16.5 84.5q0 45 -16.5 83.5t-46 68.5t-68.5 46.5t-84 16.5t-84 -16.5t-67.5 -46.5t-46 -68.5t-17.5 -83.5z" />
<glyph unicode="&#xb1;" horiz-adv-x="1368" d="M188 -47v156h1094v-156h-1094zM188 762v156h469v468h156v-468h469v-156h-469v-469h-156v469h-469z" />
<glyph unicode="&#xb2;" horiz-adv-x="598" d="M119 625v43q184 160 282.5 273.5t98.5 205.5q0 70 -70 70q-41 0 -76 -28t-53 -75h-63q23 92 86 140.5t157 48.5q86 0 142.5 -45.5t56.5 -110.5q0 -45 -34 -92t-87 -96.5t-119.5 -99.5t-132.5 -101v-4h166q35 0 48.5 9t21.5 44h65l-43 -182h-446z" />
<glyph unicode="&#xb3;" horiz-adv-x="598" d="M158 662q0 37 17.5 58t45.5 21q20 0 37.5 -9t35 -20.5t33 -20.5t29.5 -9q20 0 39 18.5t33 47t23.5 67.5t9.5 78q0 37 -14.5 58.5t-38.5 21.5q-10 0 -38 -10.5t-48 -22.5l14 64l86 59q92 66 92 113q0 49 -47 49q-23 0 -46.5 -12.5t-70.5 -47.5l-43 35q61 59 107.5 81 t111.5 22q68 0 111 -29t43 -76q0 -43 -36 -74.5t-128 -68.5v-4q59 -8 92 -41t33 -86q0 -57 -34 -113.5t-88 -100.5t-121.5 -72t-137.5 -28q-102 0 -102 52z" />
<glyph unicode="&#xb4;" horiz-adv-x="681" d="M328 977l137 338h240l-226 -338h-151z" />
<glyph unicode="&#xb5;" horiz-adv-x="1173" d="M-68 -332q0 33 21.5 77t51.5 96.5t61.5 114.5t52.5 134l215 748h215l-141 -496q-14 -49 -22.5 -88t-8.5 -64q0 -43 19.5 -69.5t66.5 -26.5q31 0 76 22.5t92 69.5t92 118t72 165l108 369h213l-180 -623q-20 -76 -12 -108.5t49 -32.5q25 0 55.5 43t58.5 108l37 -20 q-41 -117 -98 -175.5t-149 -58.5q-78 0 -112 45t-34 121q0 16 2 39t6 45l-4 4q-92 -135 -188 -194.5t-195 -59.5q-66 0 -97.5 28t-59.5 75q-33 -94 -41.5 -169t-11.5 -133.5t-11 -103.5t-43 -78q-14 -14 -29.5 -23t-38.5 -9q-41 0 -64.5 31.5t-23.5 78.5z" />
<glyph unicode="&#xb6;" horiz-adv-x="1110" d="M158 813q0 96 30.5 181t90.5 145q39 39 79.5 64.5t95 41t126 22.5t170.5 7h516v-45h-43q-72 0 -109 -32t-37 -107v-1567h-100v1673h-180v-1673h-101v823q-145 0 -247.5 39t-167 103.5t-94 149.5t-29.5 175z" />
<glyph unicode="&#xb7;" horiz-adv-x="661" d="M258 678q0 66 46 112t112 46t111.5 -46.5t45.5 -111.5q0 -66 -46 -112t-111 -46q-66 0 -112 46t-46 112z" />
<glyph unicode="&#xb8;" horiz-adv-x="681" d="M72 -424l12 64q78 0 130 24.5t52 71.5t-61 59l45 189h63l-12 -60q53 -6 84 -42t31 -91t-24.5 -95t-66.5 -66.5t-96.5 -40t-113.5 -13.5h-43z" />
<glyph unicode="&#xb9;" horiz-adv-x="598" d="M201 625l10 47h12q51 0 72.5 21.5t38.5 92.5l80 344q-45 -25 -88 -43t-97 -40l13 63q109 43 184.5 93t110.5 100h86l-129 -551q-10 -37 3 -58.5t54 -21.5h24l-10 -47h-364z" />
<glyph unicode="&#xba;" horiz-adv-x="681" d="M250 950q0 68 31.5 131.5t82 112.5t115 79t131.5 30q66 0 105 -49.5t39 -131.5q0 -66 -31 -128t-81 -111t-115.5 -79t-133.5 -30q-63 0 -103 49t-40 127zM403 977q0 -66 19.5 -103.5t52.5 -37.5q18 0 41 19t41 54t30.5 82t12.5 105q0 63 -21.5 103t-50.5 40 q-27 0 -49 -26.5t-39.5 -66.5t-27 -86t-9.5 -83z" />
<glyph unicode="&#xbb;" horiz-adv-x="874" d="M88 111l160 352l12 346h59l152 -346l-315 -352h-68zM444 88l224 373l-27 370h66l190 -370l-383 -373h-70z" />
<glyph unicode="&#xbc;" horiz-adv-x="1728" d="M201 625l10 47h12q51 0 72.5 21.5t38.5 92.5l80 344q-45 -25 -88 -43t-97 -40l13 63q109 43 184.5 93t110.5 100h86l-129 -551q-10 -37 3 -58.5t54 -21.5h24l-10 -47h-364zM356 -59l832 1435h133l-832 -1435h-133zM893 166l20 104l410 402h74l-97 -402h123l-20 -104h-123 l-43 -180h-162l47 180h-229zM995 270h148l45 189l-4 4z" />
<glyph unicode="&#xbd;" horiz-adv-x="1728" d="M201 625l10 47h12q51 0 72.5 21.5t38.5 92.5l80 344q-45 -25 -88 -43t-97 -40l13 63q109 43 184.5 93t110.5 100h86l-129 -551q-10 -37 3 -58.5t54 -21.5h24l-10 -47h-364zM356 -59l832 1435h133l-832 -1435h-133zM901 0v43q184 160 282.5 273.5t98.5 205.5q0 70 -70 70 q-41 0 -75.5 -27.5t-53.5 -75.5h-63q23 92 86 140.5t158 48.5q86 0 142 -45t56 -111q0 -45 -33.5 -92t-87 -96t-120 -99.5t-131.5 -101.5v-4h165q35 0 48.5 9t21.5 44h66l-43 -182h-447z" />
<glyph unicode="&#xbe;" horiz-adv-x="1728" d="M211 662q0 37 17.5 58t45.5 21q20 0 38 -9t35.5 -20.5t32.5 -20.5t30 -9q20 0 38.5 18.5t33 47t23.5 67.5t9 78q0 37 -14.5 58.5t-38.5 21.5q-10 0 -38 -10.5t-48 -22.5l14 64l86 59q92 66 92 113q0 49 -47 49q-23 0 -46 -12.5t-71 -47.5l-43 35q61 59 107.5 81t112.5 22 q68 0 110.5 -29t42.5 -76q0 -43 -35.5 -74.5t-128.5 -68.5v-4q59 -8 92 -41t33 -86q0 -57 -33.5 -113.5t-88 -100.5t-122 -72t-137.5 -28q-102 0 -102 52zM379 -59l831 1435h133l-831 -1435h-133zM915 166l21 104l410 402h73l-96 -402h123l-21 -104h-122l-43 -180h-162 l47 180h-230zM1018 270h147l45 189l-4 4z" />
<glyph unicode="&#xbf;" horiz-adv-x="874" d="M74 -139q0 113 36.5 192.5t82.5 124.5q57 57 113 82t102.5 44.5t78 49t39.5 99.5h68q-4 -129 -23.5 -225.5t-87.5 -164.5q-39 -39 -92 -62.5t-102 -45t-84 -47t-35 -70.5q0 -43 39 -71.5t98 -28.5q31 0 57.5 8t54 17.5t58.5 17.5t70 8q43 0 71.5 -28.5t28.5 -73.5 q0 -74 -65.5 -119t-175.5 -45q-160 0 -246 88t-86 250zM475 686q0 66 41 113t107 47q47 0 86 -35t39 -100q0 -61 -43.5 -109.5t-106.5 -48.5q-57 0 -90 37t-33 96z" />
<glyph unicode="&#xc0;" horiz-adv-x="1472" d="M-76 0l17 80q80 0 136 40t132 138l792 1047h195l14 -1069q0 -45 7.5 -75t25 -48.5t48 -25.5t81.5 -7h21l-17 -80h-641l17 80h51q78 0 118 33.5t37 126.5l-4 260h-452l-193 -254q-53 -68 -22.5 -117t114.5 -49h27l-16 -80h-488zM592 618h360v467h-6zM895 1725h240 l137 -338h-152z" />
<glyph unicode="&#xc1;" horiz-adv-x="1472" d="M-76 0l17 80q80 0 136 40t132 138l792 1047h195l14 -1069q0 -45 7.5 -75t25 -48.5t48 -25.5t81.5 -7h21l-17 -80h-641l17 80h51q78 0 118 33.5t37 126.5l-4 260h-452l-193 -254q-53 -68 -22.5 -117t114.5 -49h27l-16 -80h-488zM592 618h360v467h-6zM965 1387l137 338h240 l-226 -338h-151z" />
<glyph unicode="&#xc2;" horiz-adv-x="1472" d="M-76 0l17 80q80 0 136 40t132 138l792 1047h195l14 -1069q0 -45 7.5 -75t25 -48.5t48 -25.5t81.5 -7h21l-17 -80h-641l17 80h51q78 0 118 33.5t37 126.5l-4 260h-452l-193 -254q-53 -68 -22.5 -117t114.5 -49h27l-16 -80h-488zM592 618h360v467h-6zM782 1389l283 336h270 l76 -336h-151l-78 158l-254 -158h-146z" />
<glyph unicode="&#xc3;" horiz-adv-x="1472" d="M-76 0l17 80q80 0 136 40t132 138l792 1047h195l14 -1069q0 -45 7.5 -75t25 -48.5t48 -25.5t81.5 -7h21l-17 -80h-641l17 80h51q78 0 118 33.5t37 126.5l-4 260h-452l-193 -254q-53 -68 -22.5 -117t114.5 -49h27l-16 -80h-488zM592 618h360v467h-6zM770 1411 q0 66 15.5 119.5t44.5 91.5q61 80 153 80q35 0 75 -14t80 -31.5t76.5 -32t67.5 -14.5q57 0 80 90h131q-2 -135 -63.5 -213t-143.5 -78q-35 0 -73.5 14.5t-78.5 32t-78 32t-71 14.5q-61 0 -80 -91h-135z" />
<glyph unicode="&#xc4;" horiz-adv-x="1472" d="M-76 0l17 80q80 0 136 40t132 138l792 1047h195l14 -1069q0 -45 7.5 -75t25 -48.5t48 -25.5t81.5 -7h21l-17 -80h-641l17 80h51q78 0 118 33.5t37 126.5l-4 260h-452l-193 -254q-53 -68 -22.5 -117t114.5 -49h27l-16 -80h-488zM592 618h360v467h-6zM807 1557q0 49 35 84 t84 35t85 -35t36 -84t-36 -85t-85 -36t-84 36t-35 85zM1208 1557q0 49 35 84t84 35t85 -35t36 -84t-36 -85t-85 -36t-84 36t-35 85z" />
<glyph unicode="&#xc5;" horiz-adv-x="1472" d="M-76 0l17 80q80 0 136 40t132 138l792 1047h195l14 -1069q0 -45 7.5 -75t25 -48.5t48 -25.5t81.5 -7h21l-17 -80h-641l17 80h51q78 0 118 33.5t37 126.5l-4 260h-452l-193 -254q-53 -68 -22.5 -117t114.5 -49h27l-16 -80h-488zM592 618h360v467h-6zM924 1567 q0 41 15.5 78t43 64.5t64.5 43t78 15.5t78 -15.5t64.5 -43t43 -64.5t15.5 -78t-15.5 -78t-43 -64.5t-64.5 -43t-78 -15.5t-78 15.5t-64.5 43t-43 64.5t-15.5 78zM998 1567q0 -53 37 -91t90 -38t91 38t38 91t-38 90t-91 37t-90 -37t-37 -90z" />
<glyph unicode="&#xc6;" horiz-adv-x="1961" d="M-102 0l16 80q53 0 127 43t127 110l688 863q27 35 22.5 66.5t-55.5 31.5h-88l17 80h1233l-64 -309h-96q10 68 -6.5 110.5t-47 68t-73.5 35t-86 9.5h-314l-102 -506h295q98 0 138 36t63 107h84l-84 -411h-82q16 104 -12.5 143t-129.5 39h-290l-70 -344q-18 -90 17.5 -128 t121.5 -38h78q147 0 266 59.5t211 169.5h92l-114 -315h-1137l16 80q49 0 83 11t55.5 36t35 64.5t25.5 97.5l41 200h-414l-178 -219q-68 -86 -50.5 -138t101.5 -52h27l-16 -80h-471zM555 575h363l124 615l-4 4z" />
<glyph unicode="&#xc7;" horiz-adv-x="1492" d="M180 541q0 123 47 257t153.5 245.5t278.5 185.5t420 74q123 0 229.5 -20.5t198.5 -61.5l-77 -324h-82q6 74 -17.5 132t-68.5 99t-106.5 63.5t-131.5 22.5q-100 0 -199.5 -42t-179.5 -130t-130 -224t-50 -324q0 -199 92 -317t262 -118q135 0 254 69t207 198h84l-104 -326 h-46q-18 16 -31.5 21.5t-39.5 5.5q-27 0 -67 -9.5t-91 -19.5t-112.5 -19.5t-131.5 -9.5l-10 -45q53 -6 84 -42t31 -91t-24.5 -95t-66.5 -66.5t-96.5 -40t-113.5 -13.5h-43l12 64q78 0 130 24.5t52 71.5t-61 59l43 182q-106 14 -197.5 64.5t-158 125.5t-104.5 170t-38 204z " />
<glyph unicode="&#xc8;" horiz-adv-x="1343" d="M33 0l16 80q49 0 83 11t55.5 36t35 64.5t25.5 97.5l147 725q18 92 -9.5 136t-123.5 44h-37l17 80h1132l-63 -309h-97q10 68 -6 110.5t-47 68t-74 35t-86 9.5h-313l-102 -506h295q98 0 138 36t62 107h84l-84 -411h-82q16 104 -12.5 143t-128.5 39h-291l-69 -344 q-18 -90 17.5 -128t121.5 -38h78q147 0 266 59.5t211 169.5h92l-115 -315h-1136zM686 1725h240l137 -338h-152z" />
<glyph unicode="&#xc9;" horiz-adv-x="1343" d="M33 0l16 80q49 0 83 11t55.5 36t35 64.5t25.5 97.5l147 725q18 92 -9.5 136t-123.5 44h-37l17 80h1132l-63 -309h-97q10 68 -6 110.5t-47 68t-74 35t-86 9.5h-313l-102 -506h295q98 0 138 36t62 107h84l-84 -411h-82q16 104 -12.5 143t-128.5 39h-291l-69 -344 q-18 -90 17.5 -128t121.5 -38h78q147 0 266 59.5t211 169.5h92l-115 -315h-1136zM756 1387l137 338h240l-226 -338h-151z" />
<glyph unicode="&#xca;" horiz-adv-x="1343" d="M33 0l16 80q49 0 83 11t55.5 36t35 64.5t25.5 97.5l147 725q18 92 -9.5 136t-123.5 44h-37l17 80h1132l-63 -309h-97q10 68 -6 110.5t-47 68t-74 35t-86 9.5h-313l-102 -506h295q98 0 138 36t62 107h84l-84 -411h-82q16 104 -12.5 143t-128.5 39h-291l-69 -344 q-18 -90 17.5 -128t121.5 -38h78q147 0 266 59.5t211 169.5h92l-115 -315h-1136zM573 1389l283 336h270l76 -336h-151l-78 158l-254 -158h-146z" />
<glyph unicode="&#xcb;" horiz-adv-x="1343" d="M33 0l16 80q49 0 83 11t55.5 36t35 64.5t25.5 97.5l147 725q18 92 -9.5 136t-123.5 44h-37l17 80h1132l-63 -309h-97q10 68 -6 110.5t-47 68t-74 35t-86 9.5h-313l-102 -506h295q98 0 138 36t62 107h84l-84 -411h-82q16 104 -12.5 143t-128.5 39h-291l-69 -344 q-18 -90 17.5 -128t121.5 -38h78q147 0 266 59.5t211 169.5h92l-115 -315h-1136zM598 1557q0 49 35 84t84 35t85 -35t36 -84t-36 -85t-85 -36t-84 36t-35 85zM999 1557q0 49 35 84t84 35t85 -35t36 -84t-36 -85t-85 -36t-84 36t-35 85z" />
<glyph unicode="&#xcc;" horiz-adv-x="768" d="M16 0l17 80h22q92 0 134 40t65 150l152 744q18 90 -10.5 135t-125.5 45h-37l17 80h647l-16 -80q-100 0 -148.5 -41t-60.5 -102l-162 -795q-18 -88 9.5 -132t111.5 -44h65l-16 -80h-664zM397 1725h240l137 -338h-152z" />
<glyph unicode="&#xcd;" horiz-adv-x="768" d="M16 0l17 80h22q92 0 134 40t65 150l152 744q18 90 -10.5 135t-125.5 45h-37l17 80h647l-16 -80q-100 0 -148.5 -41t-60.5 -102l-162 -795q-18 -88 9.5 -132t111.5 -44h65l-16 -80h-664zM467 1387l137 338h240l-226 -338h-151z" />
<glyph unicode="&#xce;" horiz-adv-x="768" d="M16 0l17 80h22q92 0 134 40t65 150l152 744q18 90 -10.5 135t-125.5 45h-37l17 80h647l-16 -80q-100 0 -148.5 -41t-60.5 -102l-162 -795q-18 -88 9.5 -132t111.5 -44h65l-16 -80h-664zM284 1389l283 336h270l76 -336h-151l-78 158l-254 -158h-146z" />
<glyph unicode="&#xcf;" horiz-adv-x="768" d="M16 0l17 80h22q92 0 134 40t65 150l152 744q18 90 -10.5 135t-125.5 45h-37l17 80h647l-16 -80q-100 0 -148.5 -41t-60.5 -102l-162 -795q-18 -88 9.5 -132t111.5 -44h65l-16 -80h-664zM309 1557q0 49 35 84t84 35t85 -35t36 -84t-36 -85t-85 -36t-84 36t-35 85z M710 1557q0 49 35 84t84 35t85 -35t36 -84t-36 -85t-85 -36t-84 36t-35 85z" />
<glyph unicode="&#xd0;" horiz-adv-x="1642" d="M25 0l16 80h20q78 0 121 37t64 135l71 340h-221l17 86h221l67 338q18 90 -9 134t-124 44h-41l17 80h686q195 0 325.5 -43t211.5 -119t116 -177t35 -216q0 -113 -42 -240t-140.5 -233.5t-260 -176t-401.5 -69.5h-749zM499 185.5q1 -33.5 19.5 -55t60.5 -32t113 -10.5 q92 0 165 16.5t129 42t95 54t64 53.5q47 47 81 107.5t56.5 126t33.5 130t11 117.5q0 94 -28.5 176t-87 143.5t-146.5 97.5t-209 36h-162l-102 -510h319l-16 -86h-320l-67 -326q-10 -47 -9 -80.5z" />
<glyph unicode="&#xd1;" horiz-adv-x="1579" d="M49 0l17 80q70 0 116.5 54t69.5 157l164 803q-37 53 -73 74.5t-101 25.5l16 80h338l686 -948l127 626q25 125 -10 180.5t-148 61.5l17 80h446l-16 -80q-86 -14 -132 -75.5t-69 -166.5l-197 -962h-88l-729 1011l-143 -706q-16 -86 19.5 -145.5t152.5 -69.5l-16 -80h-447z M678 1411q0 66 15.5 119.5t44.5 91.5q61 80 153 80q35 0 75 -14t80 -31.5t76.5 -32t67.5 -14.5q57 0 80 90h131q-2 -135 -63.5 -213t-143.5 -78q-35 0 -73.5 14.5t-78.5 32t-78 32t-71 14.5q-61 0 -80 -91h-135z" />
<glyph unicode="&#xd2;" horiz-adv-x="1685" d="M180 578q0 141 47 265t156 232q125 125 275.5 176.5t324.5 51.5q158 0 283 -48.5t211 -132.5t132 -196.5t46 -241.5q0 -150 -59.5 -280t-164 -226t-249 -151.5t-314.5 -55.5q-178 0 -308 57.5t-215 145.5t-125 196t-40 208zM463 481q0 -94 26.5 -172t75.5 -133t122 -86 t165 -31q152 0 251 76t159.5 187.5t85 237.5t24.5 224q0 100 -27.5 180t-77.5 135.5t-120 85t-154 29.5q-117 0 -214 -54t-167.5 -152.5t-109.5 -232.5t-39 -294zM856 1725h240l137 -338h-152z" />
<glyph unicode="&#xd3;" horiz-adv-x="1685" d="M180 578q0 141 47 265t156 232q125 125 275.5 176.5t324.5 51.5q158 0 283 -48.5t211 -132.5t132 -196.5t46 -241.5q0 -150 -59.5 -280t-164 -226t-249 -151.5t-314.5 -55.5q-178 0 -308 57.5t-215 145.5t-125 196t-40 208zM463 481q0 -94 26.5 -172t75.5 -133t122 -86 t165 -31q152 0 251 76t159.5 187.5t85 237.5t24.5 224q0 100 -27.5 180t-77.5 135.5t-120 85t-154 29.5q-117 0 -214 -54t-167.5 -152.5t-109.5 -232.5t-39 -294zM926 1387l137 338h240l-226 -338h-151z" />
<glyph unicode="&#xd4;" horiz-adv-x="1685" d="M180 578q0 141 47 265t156 232q125 125 275.5 176.5t324.5 51.5q158 0 283 -48.5t211 -132.5t132 -196.5t46 -241.5q0 -150 -59.5 -280t-164 -226t-249 -151.5t-314.5 -55.5q-178 0 -308 57.5t-215 145.5t-125 196t-40 208zM463 481q0 -94 26.5 -172t75.5 -133t122 -86 t165 -31q152 0 251 76t159.5 187.5t85 237.5t24.5 224q0 100 -27.5 180t-77.5 135.5t-120 85t-154 29.5q-117 0 -214 -54t-167.5 -152.5t-109.5 -232.5t-39 -294zM743 1389l283 336h270l76 -336h-151l-78 158l-254 -158h-146z" />
<glyph unicode="&#xd5;" horiz-adv-x="1685" d="M180 578q0 141 47 265t156 232q125 125 275.5 176.5t324.5 51.5q158 0 283 -48.5t211 -132.5t132 -196.5t46 -241.5q0 -150 -59.5 -280t-164 -226t-249 -151.5t-314.5 -55.5q-178 0 -308 57.5t-215 145.5t-125 196t-40 208zM463 481q0 -94 26.5 -172t75.5 -133t122 -86 t165 -31q152 0 251 76t159.5 187.5t85 237.5t24.5 224q0 100 -27.5 180t-77.5 135.5t-120 85t-154 29.5q-117 0 -214 -54t-167.5 -152.5t-109.5 -232.5t-39 -294zM731 1411q0 66 15.5 119.5t44.5 91.5q61 80 153 80q35 0 75 -14t80 -31.5t76.5 -32t67.5 -14.5q57 0 80 90 h131q-2 -135 -63.5 -213t-143.5 -78q-35 0 -73.5 14.5t-78.5 32t-78 32t-71 14.5q-61 0 -80 -91h-135z" />
<glyph unicode="&#xd6;" horiz-adv-x="1685" d="M180 578q0 141 47 265t156 232q125 125 275.5 176.5t324.5 51.5q158 0 283 -48.5t211 -132.5t132 -196.5t46 -241.5q0 -150 -59.5 -280t-164 -226t-249 -151.5t-314.5 -55.5q-178 0 -308 57.5t-215 145.5t-125 196t-40 208zM463 481q0 -94 26.5 -172t75.5 -133t122 -86 t165 -31q152 0 251 76t159.5 187.5t85 237.5t24.5 224q0 100 -27.5 180t-77.5 135.5t-120 85t-154 29.5q-117 0 -214 -54t-167.5 -152.5t-109.5 -232.5t-39 -294zM768 1557q0 49 35 84t84 35t85 -35t36 -84t-36 -85t-85 -36t-84 36t-35 85zM1169 1557q0 49 35 84t84 35 t85 -35t36 -84t-36 -85t-85 -36t-84 36t-35 85z" />
<glyph unicode="&#xd7;" d="M225 1063l111 111l397 -398l397 398l111 -111l-397 -397l397 -398l-111 -110l-397 397l-395 -395l-111 110l396 396z" />
<glyph unicode="&#xd8;" horiz-adv-x="1685" d="M180 578q0 141 47 265t156 232q125 125 275.5 176.5t324.5 51.5q213 0 367 -89l131 152l65 -55l-123 -144q113 -86 172.5 -211t59.5 -272q0 -150 -59.5 -280t-164 -226t-249 -151.5t-314.5 -55.5q-117 0 -212 26t-173 69l-129 -152l-65 55l123 146q-119 92 -175.5 218 t-56.5 245zM463 481q0 -141 57 -239l740 866q-49 51 -117 78.5t-150 27.5q-117 0 -214 -54t-167.5 -152.5t-109.5 -232.5t-39 -294zM573 170q49 -53 119 -82t160 -29q152 0 251 76t159.5 187.5t85 237.5t24.5 224q0 145 -59 252z" />
<glyph unicode="&#xd9;" horiz-adv-x="1536" d="M211 1194l16 80h627l-16 -80q-92 0 -142.5 -35t-66.5 -121l-119 -585q-20 -100 -17 -164t58 -119q53 -53 123.5 -74.5t148.5 -21.5q199 0 324 125q53 53 92 145t59 215l68 397q8 51 5 90t-22.5 69t-60.5 48.5t-106 30.5l16 80h473l-16 -80q-86 -10 -134 -65.5t-65 -153.5 l-65 -395q-23 -135 -61 -246t-130 -203q-84 -84 -181 -122t-241 -38q-174 0 -274.5 41t-157.5 99q-76 76 -95.5 159.5t3.5 196.5l113 547q16 84 -9.5 132t-124.5 48h-22zM782 1725h240l137 -338h-152z" />
<glyph unicode="&#xda;" horiz-adv-x="1536" d="M211 1194l16 80h627l-16 -80q-92 0 -142.5 -35t-66.5 -121l-119 -585q-20 -100 -17 -164t58 -119q53 -53 123.5 -74.5t148.5 -21.5q199 0 324 125q53 53 92 145t59 215l68 397q8 51 5 90t-22.5 69t-60.5 48.5t-106 30.5l16 80h473l-16 -80q-86 -10 -134 -65.5t-65 -153.5 l-65 -395q-23 -135 -61 -246t-130 -203q-84 -84 -181 -122t-241 -38q-174 0 -274.5 41t-157.5 99q-76 76 -95.5 159.5t3.5 196.5l113 547q16 84 -9.5 132t-124.5 48h-22zM852 1387l137 338h240l-226 -338h-151z" />
<glyph unicode="&#xdb;" horiz-adv-x="1536" d="M211 1194l16 80h627l-16 -80q-92 0 -142.5 -35t-66.5 -121l-119 -585q-20 -100 -17 -164t58 -119q53 -53 123.5 -74.5t148.5 -21.5q199 0 324 125q53 53 92 145t59 215l68 397q8 51 5 90t-22.5 69t-60.5 48.5t-106 30.5l16 80h473l-16 -80q-86 -10 -134 -65.5t-65 -153.5 l-65 -395q-23 -135 -61 -246t-130 -203q-84 -84 -181 -122t-241 -38q-174 0 -274.5 41t-157.5 99q-76 76 -95.5 159.5t3.5 196.5l113 547q16 84 -9.5 132t-124.5 48h-22zM669 1389l283 336h270l76 -336h-151l-78 158l-254 -158h-146z" />
<glyph unicode="&#xdc;" horiz-adv-x="1536" d="M211 1194l16 80h627l-16 -80q-92 0 -142.5 -35t-66.5 -121l-119 -585q-20 -100 -17 -164t58 -119q53 -53 123.5 -74.5t148.5 -21.5q199 0 324 125q53 53 92 145t59 215l68 397q8 51 5 90t-22.5 69t-60.5 48.5t-106 30.5l16 80h473l-16 -80q-86 -10 -134 -65.5t-65 -153.5 l-65 -395q-23 -135 -61 -246t-130 -203q-84 -84 -181 -122t-241 -38q-174 0 -274.5 41t-157.5 99q-76 76 -95.5 159.5t3.5 196.5l113 547q16 84 -9.5 132t-124.5 48h-22zM694 1557q0 49 35 84t84 35t85 -35t36 -84t-36 -85t-85 -36t-84 36t-35 85zM1095 1557q0 49 35 84 t84 35t85 -35t36 -84t-36 -85t-85 -36t-84 36t-35 85z" />
<glyph unicode="&#xdd;" d="M197 1194l16 80h526l-16 -80q-84 -2 -96.5 -29.5t10.5 -74.5l215 -463l365 411q43 49 25.5 96.5t-120.5 59.5l17 80h411l-16 -80q-59 -23 -114.5 -71t-131.5 -134l-411 -465l-58 -286q-16 -82 17.5 -120t105.5 -38h80l-16 -80h-682l16 80h31q96 0 137 49t63 162l47 233 l-262 568q-29 59 -60.5 80.5t-98.5 21.5zM766 1387l137 338h240l-226 -338h-151z" />
<glyph unicode="&#xde;" horiz-adv-x="1300" d="M18 0l17 80h12q86 0 131 39t64 131l157 766q23 102 -14 140t-125 38h-39l17 80h643l-17 -80q-98 0 -141 -35t-59 -112h163q223 0 346 -93.5t123 -265.5q0 -98 -38.5 -183t-107.5 -146.5t-161 -97.5t-201 -36q-102 0 -162.5 16.5t-117.5 43.5l-6 -29q-20 -94 8.5 -135 t112.5 -41h61l-16 -80h-650zM524 365q41 -20 79 -34t91 -14q82 0 140.5 35t96.5 91.5t55.5 128t17.5 147.5q0 129 -58.5 185.5t-173.5 56.5h-127z" />
<glyph unicode="&#xdf;" horiz-adv-x="1003" d="M-373 -348q0 41 36 70.5t83 29.5t73.5 -23.5t47 -51t39 -50t49.5 -22.5q18 0 32.5 10t29 41t28.5 85t29 144l168 998q18 115 63 206t109.5 154.5t143.5 98t165 34.5q127 0 206 -69.5t79 -182.5q0 -123 -81 -203.5t-253 -134.5v-4q117 -27 177 -104.5t60 -200.5 q0 -94 -32.5 -186t-95 -164t-154.5 -113t-211 -32l10 51q117 23 181.5 141.5t64.5 310.5q0 190 -113 277l10 47q98 18 156.5 115.5t58.5 238.5q0 72 -30.5 115t-81.5 43q-41 0 -73 -26.5t-54.5 -69.5t-37.5 -97.5t-26 -107.5l-161 -954q-25 -145 -75 -247t-117 -166.5 t-142.5 -94t-151.5 -29.5q-90 0 -149.5 35t-59.5 88z" />
<glyph unicode="&#xe0;" horiz-adv-x="937" d="M61 176q0 100 46.5 223t177.5 254q63 61 123.5 101.5t128 64t146.5 31.5t177 8l-135 -659q-8 -35 -8 -56.5t16 -21.5q8 0 25.5 11t38 29.5t41 40t36.5 40.5v-68q-78 -84 -155.5 -140.5t-136.5 -56.5q-41 0 -61.5 32t-20.5 91q0 29 2 51.5t12 77.5h-4q-49 -49 -94 -95 t-85 -81t-73 -55.5t-55 -20.5q-18 0 -42 11.5t-46.5 35t-38 61.5t-15.5 91zM252 307q0 -63 22.5 -102t61.5 -39q35 0 83 42t111 107l84 418q-78 0 -133 -23.5t-102 -70.5q-27 -27 -49.5 -65.5t-40 -83t-27.5 -92.5t-10 -91zM387 1315h240l137 -338h-152z" />
<glyph unicode="&#xe1;" horiz-adv-x="937" d="M61 176q0 100 46.5 223t177.5 254q63 61 123.5 101.5t128 64t146.5 31.5t177 8l-135 -659q-8 -35 -8 -56.5t16 -21.5q8 0 25.5 11t38 29.5t41 40t36.5 40.5v-68q-78 -84 -155.5 -140.5t-136.5 -56.5q-41 0 -61.5 32t-20.5 91q0 29 2 51.5t12 77.5h-4q-49 -49 -94 -95 t-85 -81t-73 -55.5t-55 -20.5q-18 0 -42 11.5t-46.5 35t-38 61.5t-15.5 91zM252 307q0 -63 22.5 -102t61.5 -39q35 0 83 42t111 107l84 418q-78 0 -133 -23.5t-102 -70.5q-27 -27 -49.5 -65.5t-40 -83t-27.5 -92.5t-10 -91zM457 977l137 338h240l-226 -338h-151z" />
<glyph unicode="&#xe2;" horiz-adv-x="937" d="M61 176q0 100 46.5 223t177.5 254q63 61 123.5 101.5t128 64t146.5 31.5t177 8l-135 -659q-8 -35 -8 -56.5t16 -21.5q8 0 25.5 11t38 29.5t41 40t36.5 40.5v-68q-78 -84 -155.5 -140.5t-136.5 -56.5q-41 0 -61.5 32t-20.5 91q0 29 2 51.5t12 77.5h-4q-49 -49 -94 -95 t-85 -81t-73 -55.5t-55 -20.5q-18 0 -42 11.5t-46.5 35t-38 61.5t-15.5 91zM252 307q0 -63 22.5 -102t61.5 -39q35 0 83 42t111 107l84 418q-78 0 -133 -23.5t-102 -70.5q-27 -27 -49.5 -65.5t-40 -83t-27.5 -92.5t-10 -91zM274 979l283 336h270l76 -336h-151l-78 158 l-254 -158h-146z" />
<glyph unicode="&#xe3;" horiz-adv-x="937" d="M61 176q0 100 46.5 223t177.5 254q63 61 123.5 101.5t128 64t146.5 31.5t177 8l-135 -659q-8 -35 -8 -56.5t16 -21.5q8 0 25.5 11t38 29.5t41 40t36.5 40.5v-68q-78 -84 -155.5 -140.5t-136.5 -56.5q-41 0 -61.5 32t-20.5 91q0 29 2 51.5t12 77.5h-4q-49 -49 -94 -95 t-85 -81t-73 -55.5t-55 -20.5q-18 0 -42 11.5t-46.5 35t-38 61.5t-15.5 91zM252 307q0 -63 22.5 -102t61.5 -39q35 0 83 42t111 107l84 418q-78 0 -133 -23.5t-102 -70.5q-27 -27 -49.5 -65.5t-40 -83t-27.5 -92.5t-10 -91zM262 1001q0 66 15.5 119.5t44.5 91.5 q61 80 153 80q35 0 75 -14t80 -31.5t76.5 -32t67.5 -14.5q57 0 80 90h131q-2 -135 -63.5 -213t-143.5 -78q-35 0 -73.5 14.5t-78.5 32t-78 32t-71 14.5q-61 0 -80 -91h-135z" />
<glyph unicode="&#xe4;" horiz-adv-x="937" d="M61 176q0 100 46.5 223t177.5 254q63 61 123.5 101.5t128 64t146.5 31.5t177 8l-135 -659q-8 -35 -8 -56.5t16 -21.5q8 0 25.5 11t38 29.5t41 40t36.5 40.5v-68q-78 -84 -155.5 -140.5t-136.5 -56.5q-41 0 -61.5 32t-20.5 91q0 29 2 51.5t12 77.5h-4q-49 -49 -94 -95 t-85 -81t-73 -55.5t-55 -20.5q-18 0 -42 11.5t-46.5 35t-38 61.5t-15.5 91zM252 307q0 -63 22.5 -102t61.5 -39q35 0 83 42t111 107l84 418q-78 0 -133 -23.5t-102 -70.5q-27 -27 -49.5 -65.5t-40 -83t-27.5 -92.5t-10 -91zM299 1147q0 49 35 84t84 35t85 -35t36 -84 t-36 -85t-85 -36t-84 36t-35 85zM700 1147q0 49 35 84t84 35t85 -35t36 -84t-36 -85t-85 -36t-84 36t-35 85z" />
<glyph unicode="&#xe5;" horiz-adv-x="937" d="M61 176q0 100 46.5 223t177.5 254q63 61 123.5 101.5t128 64t146.5 31.5t177 8l-135 -659q-8 -35 -8 -56.5t16 -21.5q8 0 25.5 11t38 29.5t41 40t36.5 40.5v-68q-78 -84 -155.5 -140.5t-136.5 -56.5q-41 0 -61.5 32t-20.5 91q0 29 2 51.5t12 77.5h-4q-49 -49 -94 -95 t-85 -81t-73 -55.5t-55 -20.5q-18 0 -42 11.5t-46.5 35t-38 61.5t-15.5 91zM252 307q0 -63 22.5 -102t61.5 -39q35 0 83 42t111 107l84 418q-78 0 -133 -23.5t-102 -70.5q-27 -27 -49.5 -65.5t-40 -83t-27.5 -92.5t-10 -91zM422 1157q0 41 15.5 78t43 64.5t64.5 43t78 15.5 t78 -15.5t64.5 -43t43 -64.5t15.5 -78t-15.5 -78t-43 -64.5t-64.5 -43t-78 -15.5t-78 15.5t-64.5 43t-43 64.5t-15.5 78zM496 1157q0 -53 37 -91t90 -38t91 38t38 91t-38 90t-91 37t-90 -37t-37 -90z" />
<glyph unicode="&#xe6;" horiz-adv-x="1259" d="M57 176q0 100 46.5 223t177.5 254q63 61 123.5 101.5t128 64t146.5 31.5t177 8l-14 -63q72 35 119 49t98 14q186 0 186 -151q0 -70 -35.5 -119t-98 -86t-146.5 -63.5t-183 -51.5q-6 -29 -8 -47t-2 -43q0 -100 39 -143t135 -52q98 6 232 105l26 -47q-119 -80 -218 -130 t-204 -50q-29 0 -68.5 10t-77.5 37.5t-64.5 77t-28.5 126.5h-6q-37 -35 -84 -78.5t-92.5 -82.5t-83 -66t-58.5 -27q-72 0 -117 56.5t-45 142.5zM240 301q0 -57 28.5 -98t65.5 -41q39 0 101.5 46t117.5 114l82 411q-119 0 -181.5 -29.5t-97.5 -74.5q-66 -84 -91 -173 t-25 -155zM793 440q125 23 194.5 94t69.5 175q0 41 -20.5 66.5t-53.5 25.5q-31 0 -55.5 -17.5t-46 -59.5t-43 -111.5t-45.5 -172.5z" />
<glyph unicode="&#xe7;" horiz-adv-x="681" d="M66 217q0 78 33.5 188.5t99 211t160 171t216.5 70.5q59 0 95.5 -28.5t36.5 -79.5q0 -49 -30 -79t-77 -30q-37 0 -58.5 14.5t-38 32t-31.5 31.5t-40 14q-43 0 -69.5 -52t-43 -122t-22.5 -140.5t-6 -107.5q0 -211 135 -211q45 0 95 31t87 82l37 -31q-55 -92 -145 -147 t-187 -55l-12 -56q53 -6 84 -42t31 -91t-24.5 -95t-66.5 -66.5t-96.5 -40t-113.5 -13.5h-43l12 64q78 0 130 24.5t52 71.5t-61 59l45 187q-86 14 -135 75.5t-49 159.5z" />
<glyph unicode="&#xe8;" horiz-adv-x="768" d="M76 248q0 92 39 199.5t107.5 198.5t162.5 151.5t207 60.5q76 0 121 -41t45 -108q0 -117 -118 -194t-325 -124q-6 -27 -9 -57.5t-3 -59.5q0 -80 44 -126t118 -46q45 0 102.5 22.5t124.5 76.5l27 -37q-43 -33 -93.5 -67t-104.5 -60.5t-109.5 -43t-106.5 -16.5 q-104 0 -166.5 74t-62.5 197zM301 1315h240l137 -338h-152zM326 438q245 72 245 267q0 39 -17 63.5t-46 24.5q-31 0 -57.5 -29t-49 -78t-41 -113.5t-34.5 -134.5z" />
<glyph unicode="&#xe9;" horiz-adv-x="768" d="M76 248q0 92 39 199.5t107.5 198.5t162.5 151.5t207 60.5q76 0 121 -41t45 -108q0 -117 -118 -194t-325 -124q-6 -27 -9 -57.5t-3 -59.5q0 -80 44 -126t118 -46q45 0 102.5 22.5t124.5 76.5l27 -37q-43 -33 -93.5 -67t-104.5 -60.5t-109.5 -43t-106.5 -16.5 q-104 0 -166.5 74t-62.5 197zM326 438q245 72 245 267q0 39 -17 63.5t-46 24.5q-31 0 -57.5 -29t-49 -78t-41 -113.5t-34.5 -134.5zM371 977l137 338h240l-226 -338h-151z" />
<glyph unicode="&#xea;" horiz-adv-x="768" d="M76 248q0 92 39 199.5t107.5 198.5t162.5 151.5t207 60.5q76 0 121 -41t45 -108q0 -117 -118 -194t-325 -124q-6 -27 -9 -57.5t-3 -59.5q0 -80 44 -126t118 -46q45 0 102.5 22.5t124.5 76.5l27 -37q-43 -33 -93.5 -67t-104.5 -60.5t-109.5 -43t-106.5 -16.5 q-104 0 -166.5 74t-62.5 197zM188 979l283 336h270l76 -336h-151l-78 158l-254 -158h-146zM326 438q245 72 245 267q0 39 -17 63.5t-46 24.5q-31 0 -57.5 -29t-49 -78t-41 -113.5t-34.5 -134.5z" />
<glyph unicode="&#xeb;" horiz-adv-x="768" d="M76 248q0 92 39 199.5t107.5 198.5t162.5 151.5t207 60.5q76 0 121 -41t45 -108q0 -117 -118 -194t-325 -124q-6 -27 -9 -57.5t-3 -59.5q0 -80 44 -126t118 -46q45 0 102.5 22.5t124.5 76.5l27 -37q-43 -33 -93.5 -67t-104.5 -60.5t-109.5 -43t-106.5 -16.5 q-104 0 -166.5 74t-62.5 197zM213 1147q0 49 35 84t84 35t85 -35t36 -84t-36 -85t-85 -36t-84 36t-35 85zM326 438q245 72 245 267q0 39 -17 63.5t-46 24.5q-31 0 -57.5 -29t-49 -78t-41 -113.5t-34.5 -134.5zM614 1147q0 49 35 84t84 35t85 -35t36 -84t-36 -85t-85 -36 t-84 36t-35 85z" />
<glyph unicode="&#xec;" horiz-adv-x="598" d="M63 610q98 131 174 189.5t136 58.5q41 0 64.5 -31.5t23.5 -85.5q0 -23 -5 -58.5t-16 -78.5l-100 -418q-10 -45 -8 -63.5t24 -18.5q25 0 65 31t79 76l37 -33q-86 -98 -167 -149.5t-147 -51.5q-47 0 -78.5 35t-31.5 88q0 33 12 88.5t37 161.5l63 268q6 29 8.5 50.5 t-18.5 21.5q-18 0 -51 -36t-62 -76zM217 1315h240l137 -338h-152z" />
<glyph unicode="&#xed;" horiz-adv-x="598" d="M63 610q98 131 174 189.5t136 58.5q41 0 64.5 -31.5t23.5 -85.5q0 -23 -5 -58.5t-16 -78.5l-100 -418q-10 -45 -8 -63.5t24 -18.5q25 0 65 31t79 76l37 -33q-86 -98 -167 -149.5t-147 -51.5q-47 0 -78.5 35t-31.5 88q0 33 12 88.5t37 161.5l63 268q6 29 8.5 50.5 t-18.5 21.5q-18 0 -51 -36t-62 -76zM287 977l137 338h240l-226 -338h-151z" />
<glyph unicode="&#xee;" horiz-adv-x="598" d="M63 610q98 131 174 189.5t136 58.5q41 0 64.5 -31.5t23.5 -85.5q0 -23 -5 -58.5t-16 -78.5l-100 -418q-10 -45 -8 -63.5t24 -18.5q25 0 65 31t79 76l37 -33q-86 -98 -167 -149.5t-147 -51.5q-47 0 -78.5 35t-31.5 88q0 33 12 88.5t37 161.5l63 268q6 29 8.5 50.5 t-18.5 21.5q-18 0 -51 -36t-62 -76zM104 979l283 336h270l76 -336h-151l-78 158l-254 -158h-146z" />
<glyph unicode="&#xef;" horiz-adv-x="598" d="M63 610q98 131 174 189.5t136 58.5q41 0 64.5 -31.5t23.5 -85.5q0 -23 -5 -58.5t-16 -78.5l-100 -418q-10 -45 -8 -63.5t24 -18.5q25 0 65 31t79 76l37 -33q-86 -98 -167 -149.5t-147 -51.5q-47 0 -78.5 35t-31.5 88q0 33 12 88.5t37 161.5l63 268q6 29 8.5 50.5 t-18.5 21.5q-18 0 -51 -36t-62 -76zM129 1147q0 49 35 84t84 35t85 -35t36 -84t-36 -85t-85 -36t-84 36t-35 85zM530 1147q0 49 35 84t84 35t85 -35t36 -84t-36 -85t-85 -36t-84 36t-35 85z" />
<glyph unicode="&#xf0;" horiz-adv-x="854" d="M4 270q0 113 49 218.5t125 187.5t167 132t175 50q29 0 55.5 -8t45.5 -31l8 2q-4 127 -41 244l-226 -107l-30 60l235 112q-20 59 -44.5 107.5t-53.5 83.5l55 49q55 -29 101.5 -74t81.5 -100l235 113l31 -60l-232 -110q61 -106 91 -219t30 -199q0 -193 -54 -324t-140 -217 q-98 -98 -208 -150.5t-224 -52.5q-102 0 -167 79t-65 214zM242 319q0 -111 34.5 -183.5t102.5 -72.5q43 4 82 45.5t68.5 106t47 148t17.5 172.5q0 111 -31 175t-90 64q-53 -2 -96 -42t-73 -103.5t-46 -144.5t-16 -165z" />
<glyph unicode="&#xf1;" horiz-adv-x="1044" d="M59 582q35 55 79 105t89 88t86 60.5t72 22.5q37 0 57.5 -28.5t20.5 -81.5q0 -55 -13.5 -118t-27.5 -126l4 -4q129 186 229.5 272t186.5 86q47 0 74.5 -31.5t27.5 -87.5q0 -16 -3 -38.5t-13 -57.5l-105 -440q-10 -39 -11 -62.5t11 -23.5q14 0 56.5 41t83.5 94l38 -31 q-82 -113 -166.5 -178.5t-156.5 -65.5q-39 0 -65.5 34t-26.5 81q0 18 3 42t13 63l98 424q14 66 -26 65q-18 0 -46 -22.5t-63 -62.5t-75.5 -92t-88.5 -114l-67 -327q-10 -53 -21.5 -65.5t-48.5 -12.5h-108q-35 0 -44.5 14t1.5 55l116 566q6 29 8.5 44t-14.5 15 q-31 0 -123 -131zM315 1001q0 66 15.5 119.5t44.5 91.5q61 80 153 80q35 0 75 -14t80 -31.5t76.5 -32t67.5 -14.5q57 0 80 90h131q-2 -135 -63.5 -213t-143.5 -78q-35 0 -73.5 14.5t-78.5 32t-78 32t-71 14.5q-61 0 -80 -91h-135z" />
<glyph unicode="&#xf2;" horiz-adv-x="917" d="M78 270q0 113 47 218.5t125 187.5t178 132t205 50q100 0 159.5 -82t59.5 -219q0 -133 -55.5 -240.5t-138.5 -182.5t-179 -116t-178 -41q-98 0 -160.5 82t-62.5 211zM315 319q0 -111 32 -183.5t81 -72.5q29 0 62.5 36t62.5 97.5t47 145.5t18 178q0 51 -9 97.5t-24.5 81 t-36 55t-42.5 20.5q-31 0 -64.5 -36t-61.5 -98t-46.5 -145.5t-18.5 -175.5zM377 1315h240l137 -338h-152z" />
<glyph unicode="&#xf3;" horiz-adv-x="917" d="M78 270q0 113 47 218.5t125 187.5t178 132t205 50q100 0 159.5 -82t59.5 -219q0 -133 -55.5 -240.5t-138.5 -182.5t-179 -116t-178 -41q-98 0 -160.5 82t-62.5 211zM315 319q0 -111 32 -183.5t81 -72.5q29 0 62.5 36t62.5 97.5t47 145.5t18 178q0 51 -9 97.5t-24.5 81 t-36 55t-42.5 20.5q-31 0 -64.5 -36t-61.5 -98t-46.5 -145.5t-18.5 -175.5zM447 977l137 338h240l-226 -338h-151z" />
<glyph unicode="&#xf4;" horiz-adv-x="917" d="M78 270q0 113 47 218.5t125 187.5t178 132t205 50q100 0 159.5 -82t59.5 -219q0 -133 -55.5 -240.5t-138.5 -182.5t-179 -116t-178 -41q-98 0 -160.5 82t-62.5 211zM264 979l283 336h270l76 -336h-151l-78 158l-254 -158h-146zM315 319q0 -111 32 -183.5t81 -72.5 q29 0 62.5 36t62.5 97.5t47 145.5t18 178q0 51 -9 97.5t-24.5 81t-36 55t-42.5 20.5q-31 0 -64.5 -36t-61.5 -98t-46.5 -145.5t-18.5 -175.5z" />
<glyph unicode="&#xf5;" horiz-adv-x="917" d="M78 270q0 113 47 218.5t125 187.5t178 132t205 50q100 0 159.5 -82t59.5 -219q0 -133 -55.5 -240.5t-138.5 -182.5t-179 -116t-178 -41q-98 0 -160.5 82t-62.5 211zM252 1001q0 66 15.5 119.5t44.5 91.5q61 80 153 80q35 0 75 -14t80 -31.5t76.5 -32t67.5 -14.5 q57 0 80 90h131q-2 -135 -63.5 -213t-143.5 -78q-35 0 -73.5 14.5t-78.5 32t-78 32t-71 14.5q-61 0 -80 -91h-135zM315 319q0 -111 32 -183.5t81 -72.5q29 0 62.5 36t62.5 97.5t47 145.5t18 178q0 51 -9 97.5t-24.5 81t-36 55t-42.5 20.5q-31 0 -64.5 -36t-61.5 -98 t-46.5 -145.5t-18.5 -175.5z" />
<glyph unicode="&#xf6;" horiz-adv-x="917" d="M78 270q0 113 47 218.5t125 187.5t178 132t205 50q100 0 159.5 -82t59.5 -219q0 -133 -55.5 -240.5t-138.5 -182.5t-179 -116t-178 -41q-98 0 -160.5 82t-62.5 211zM289 1147q0 49 35 84t84 35t85 -35t36 -84t-36 -85t-85 -36t-84 36t-35 85zM315 319q0 -111 32 -183.5 t81 -72.5q29 0 62.5 36t62.5 97.5t47 145.5t18 178q0 51 -9 97.5t-24.5 81t-36 55t-42.5 20.5q-31 0 -64.5 -36t-61.5 -98t-46.5 -145.5t-18.5 -175.5zM690 1147q0 49 35 84t84 35t85 -35t36 -84t-36 -85t-85 -36t-84 36t-35 85z" />
<glyph unicode="&#xf7;" horiz-adv-x="1368" d="M188 590v155h1094v-155h-1094zM637 256q0 41 28.5 69.5t69.5 28.5t70 -28.5t29 -69.5t-29 -69.5t-70 -28.5t-69.5 28.5t-28.5 69.5zM637 1079q0 41 28.5 70t69.5 29t70 -29t29 -70t-29 -69.5t-70 -28.5t-69.5 28.5t-28.5 69.5z" />
<glyph unicode="&#xf8;" horiz-adv-x="917" d="M53 -53l88 110q-29 39 -45 95.5t-16 121.5q0 111 47 216.5t125 186.5t178 131t205 50q66 0 119 -39l90 113l43 -35l-94 -119q61 -94 61 -221q0 -129 -54.5 -235.5t-135 -183.5t-178 -119t-183.5 -42q-66 0 -119 41l-86 -106zM317 276l287 357q-35 141 -98 141 q-33 0 -68 -38t-63.5 -105.5t-45 -158.5t-12.5 -196zM328 199q35 -135 100 -136q29 0 64.5 38t65.5 103.5t47.5 156t10.5 196.5z" />
<glyph unicode="&#xf9;" horiz-adv-x="1024" d="M66 610q90 125 164.5 186.5t144.5 61.5q51 0 72.5 -43t9.5 -102l-88 -430q-10 -45 -5 -63.5t19 -18.5q12 0 53 40t88 102.5t89 137t57 144.5l39 184q4 23 15 30t44 7h104q37 0 47.5 -12.5t2.5 -47.5l-119 -589q-4 -23 -3 -31t13 -8q4 0 19.5 11t35 28.5t41 38t35.5 38.5 l35 -32q-43 -49 -92 -96.5t-96.5 -84t-90.5 -60.5t-71 -24q-37 0 -56.5 38t-7.5 98l62 295l-4 4q-49 -78 -109.5 -156t-120 -139.5t-113 -100.5t-90.5 -39q-74 0 -73 99q0 20 3 50t13 69l86 426q8 39 9 59t-17 20q-14 0 -42 -34.5t-65 -83.5zM430 1315h240l137 -338h-152z " />
<glyph unicode="&#xfa;" horiz-adv-x="1024" d="M66 610q90 125 164.5 186.5t144.5 61.5q51 0 72.5 -43t9.5 -102l-88 -430q-10 -45 -5 -63.5t19 -18.5q12 0 53 40t88 102.5t89 137t57 144.5l39 184q4 23 15 30t44 7h104q37 0 47.5 -12.5t2.5 -47.5l-119 -589q-4 -23 -3 -31t13 -8q4 0 19.5 11t35 28.5t41 38t35.5 38.5 l35 -32q-43 -49 -92 -96.5t-96.5 -84t-90.5 -60.5t-71 -24q-37 0 -56.5 38t-7.5 98l62 295l-4 4q-49 -78 -109.5 -156t-120 -139.5t-113 -100.5t-90.5 -39q-74 0 -73 99q0 20 3 50t13 69l86 426q8 39 9 59t-17 20q-14 0 -42 -34.5t-65 -83.5zM500 977l137 338h240l-226 -338 h-151z" />
<glyph unicode="&#xfb;" horiz-adv-x="1024" d="M66 610q90 125 164.5 186.5t144.5 61.5q51 0 72.5 -43t9.5 -102l-88 -430q-10 -45 -5 -63.5t19 -18.5q12 0 53 40t88 102.5t89 137t57 144.5l39 184q4 23 15 30t44 7h104q37 0 47.5 -12.5t2.5 -47.5l-119 -589q-4 -23 -3 -31t13 -8q4 0 19.5 11t35 28.5t41 38t35.5 38.5 l35 -32q-43 -49 -92 -96.5t-96.5 -84t-90.5 -60.5t-71 -24q-37 0 -56.5 38t-7.5 98l62 295l-4 4q-49 -78 -109.5 -156t-120 -139.5t-113 -100.5t-90.5 -39q-74 0 -73 99q0 20 3 50t13 69l86 426q8 39 9 59t-17 20q-14 0 -42 -34.5t-65 -83.5zM317 979l283 336h270l76 -336 h-151l-78 158l-254 -158h-146z" />
<glyph unicode="&#xfc;" horiz-adv-x="1024" d="M66 610q90 125 164.5 186.5t144.5 61.5q51 0 72.5 -43t9.5 -102l-88 -430q-10 -45 -5 -63.5t19 -18.5q12 0 53 40t88 102.5t89 137t57 144.5l39 184q4 23 15 30t44 7h104q37 0 47.5 -12.5t2.5 -47.5l-119 -589q-4 -23 -3 -31t13 -8q4 0 19.5 11t35 28.5t41 38t35.5 38.5 l35 -32q-43 -49 -92 -96.5t-96.5 -84t-90.5 -60.5t-71 -24q-37 0 -56.5 38t-7.5 98l62 295l-4 4q-49 -78 -109.5 -156t-120 -139.5t-113 -100.5t-90.5 -39q-74 0 -73 99q0 20 3 50t13 69l86 426q8 39 9 59t-17 20q-14 0 -42 -34.5t-65 -83.5zM342 1147q0 49 35 84t84 35 t85 -35t36 -84t-36 -85t-85 -36t-84 36t-35 85zM743 1147q0 49 35 84t84 35t85 -35t36 -84t-36 -85t-85 -36t-84 36t-35 85z" />
<glyph unicode="&#xfd;" horiz-adv-x="937" d="M-74 -465l11 49h28q37 0 65.5 8.5t57.5 36.5q14 14 47 68.5t65.5 134.5t57.5 176t25 197q0 102 -7.5 192t-20.5 157t-31.5 105.5t-41.5 38.5q-43 0 -102 -92l-43 27q59 102 134 163.5t148 61.5q53 0 86 -61.5t51.5 -151.5t25.5 -191.5t7 -179.5q0 -51 -2 -103t-6 -130 l4 -4q43 90 80 176t64.5 159.5t43 135t15.5 102.5q0 20 -7 32.5t-16.5 24t-16.5 26t-7 38.5q0 53 40 90t99 37q51 0 85 -32.5t34 -82.5q0 -51 -40 -129.5t-95 -171t-114.5 -189.5t-100.5 -183q-49 -109 -85 -186t-59.5 -128t-34 -80.5t-10.5 -42.5q0 -49 70 -49h31l-10 -49 h-525zM457 977l137 338h240l-226 -338h-151z" />
<glyph unicode="&#xfe;" horiz-adv-x="1003" d="M-141 -465l10 49q100 0 146 38t69 142l285 1395q12 61 -23 62q-10 0 -21.5 -2t-33.5 -15l-23 45l273 107q18 8 34.5 14t26.5 6q29 0 12 -80l-157 -778l4 -4q45 68 91 129.5t90 109.5t83 76.5t68 28.5t56.5 -26.5t49 -69.5t34.5 -98.5t13 -114.5q0 -127 -45 -232.5 t-115.5 -180.5t-155.5 -117t-167 -42q-35 0 -65.5 6.5t-45.5 20.5l-49 -242q-20 -100 15.5 -139t148.5 -39l-10 -49h-598zM383 154q18 -57 43 -82t66 -25q55 0 98 51.5t70.5 123t42 148t14.5 128.5q0 154 -66 153q-16 0 -39.5 -21.5t-52.5 -56t-61.5 -82t-65.5 -100.5z" />
<glyph unicode="&#xff;" horiz-adv-x="937" d="M-74 -465l11 49h28q37 0 65.5 8.5t57.5 36.5q14 14 47 68.5t65.5 134.5t57.5 176t25 197q0 102 -7.5 192t-20.5 157t-31.5 105.5t-41.5 38.5q-43 0 -102 -92l-43 27q59 102 134 163.5t148 61.5q53 0 86 -61.5t51.5 -151.5t25.5 -191.5t7 -179.5q0 -51 -2 -103t-6 -130 l4 -4q43 90 80 176t64.5 159.5t43 135t15.5 102.5q0 20 -7 32.5t-16.5 24t-16.5 26t-7 38.5q0 53 40 90t99 37q51 0 85 -32.5t34 -82.5q0 -51 -40 -129.5t-95 -171t-114.5 -189.5t-100.5 -183q-49 -109 -85 -186t-59.5 -128t-34 -80.5t-10.5 -42.5q0 -49 70 -49h31l-10 -49 h-525zM299 1147q0 49 35 84t84 35t85 -35t36 -84t-36 -85t-85 -36t-84 36t-35 85zM700 1147q0 49 35 84t84 35t85 -35t36 -84t-36 -85t-85 -36t-84 36t-35 85z" />
<glyph unicode="&#x152;" horiz-adv-x="2111" d="M170 584q0 96 40 218t135 230.5t254 183t396 74.5q45 0 74 -2t53 -6q27 -4 52.5 -6t66.5 -2h905l-63 -309h-96q10 68 -6.5 110.5t-47 68t-73.5 35t-86 9.5h-314l-102 -506h295q98 0 138 36t62 107h84l-84 -411h-81q14 104 -13.5 143t-128.5 39h-291l-69 -344 q-18 -90 17.5 -128t121.5 -38h78q147 0 266 59.5t211 169.5h92l-114 -315h-934q-35 0 -54.5 -2t-42.5 -6t-52.5 -6t-88.5 -2q-160 0 -273.5 49t-186 132t-106.5 191.5t-34 227.5zM453 506q0 -94 24.5 -174t69.5 -138.5t108.5 -90t139.5 -31.5q29 0 61.5 6t63 26.5t56 58.5 t38.5 101l153 750q18 88 -36 138t-146 50q-123 0 -221 -65.5t-167 -167t-106.5 -224t-37.5 -239.5z" />
<glyph unicode="&#x153;" horiz-adv-x="1300" d="M84 266q0 147 56.5 258t139 184.5t178 111.5t175.5 38q59 0 107 -28.5t77 -94.5q123 123 285 123q86 0 134 -39t48 -110q0 -61 -35 -108.5t-95 -86.5t-144 -68.5t-183 -56.5q-29 -133 16.5 -208t137.5 -75q57 0 110.5 25t120.5 72l27 -39q-123 -96 -231.5 -141.5 t-180.5 -45.5q-70 0 -125 34t-81 91q-102 -66 -173 -95.5t-131 -29.5q-111 0 -172 77t-61 212zM315 324q0 -111 32 -183.5t81 -72.5q33 0 67.5 36.5t62.5 96t45.5 132.5t17.5 144q0 141 -32 217t-79 76q-41 0 -77 -44t-61.5 -110.5t-41 -145t-15.5 -146.5zM840 442 q123 35 187.5 100.5t64.5 159.5q0 90 -72 91q-53 0 -95 -82t-85 -269z" />
<glyph unicode="&#x178;" d="M197 1194l16 80h526l-16 -80q-84 -2 -96.5 -29.5t10.5 -74.5l215 -463l365 411q43 49 25.5 96.5t-120.5 59.5l17 80h411l-16 -80q-59 -23 -114.5 -71t-131.5 -134l-411 -465l-58 -286q-16 -82 17.5 -120t105.5 -38h80l-16 -80h-682l16 80h31q96 0 137 49t63 162l47 233 l-262 568q-29 59 -60.5 80.5t-98.5 21.5zM608 1557q0 49 35 84t84 35t85 -35t36 -84t-36 -85t-85 -36t-84 36t-35 85zM1009 1557q0 49 35 84t84 35t85 -35t36 -84t-36 -85t-85 -36t-84 36t-35 85z" />
<glyph unicode="&#x2c6;" horiz-adv-x="681" d="M145 979l283 336h270l76 -336h-151l-78 158l-254 -158h-146z" />
<glyph unicode="&#x2dc;" horiz-adv-x="681" d="M133 1001q0 66 15.5 119.5t44.5 91.5q61 80 153 80q35 0 75 -14t80 -31.5t76.5 -32t67.5 -14.5q57 0 80 90h131q-2 -135 -63.5 -213t-143.5 -78q-35 0 -73.5 14.5t-78.5 32t-78 32t-71 14.5q-61 0 -80 -91h-135z" />
<glyph unicode="&#x2000;" horiz-adv-x="884" />
<glyph unicode="&#x2001;" horiz-adv-x="1768" />
<glyph unicode="&#x2002;" horiz-adv-x="884" />
<glyph unicode="&#x2003;" horiz-adv-x="1768" />
<glyph unicode="&#x2004;" horiz-adv-x="589" />
<glyph unicode="&#x2005;" horiz-adv-x="442" />
<glyph unicode="&#x2006;" horiz-adv-x="294" />
<glyph unicode="&#x2007;" horiz-adv-x="294" />
<glyph unicode="&#x2008;" horiz-adv-x="221" />
<glyph unicode="&#x2009;" horiz-adv-x="353" />
<glyph unicode="&#x200a;" horiz-adv-x="98" />
<glyph unicode="&#x2010;" horiz-adv-x="854" d="M68 313l41 205h708l-41 -205h-708z" />
<glyph unicode="&#x2011;" horiz-adv-x="854" d="M68 313l41 205h708l-41 -205h-708z" />
<glyph unicode="&#x2012;" horiz-adv-x="854" d="M68 313l41 205h708l-41 -205h-708z" />
<glyph unicode="&#x2013;" horiz-adv-x="1024" d="M-12 420v184h1048v-184h-1048z" />
<glyph unicode="&#x2014;" horiz-adv-x="2048" d="M-12 420v184h2072v-184h-2072z" />
<glyph unicode="&#x2018;" horiz-adv-x="661" d="M315 885q0 70 30 137.5t82 123.5t120.5 98t144.5 59l31 -60q-92 -23 -149.5 -77t-57.5 -122q0 -45 13.5 -71.5t29.5 -49t29.5 -46t13.5 -64.5q0 -53 -38 -88t-93 -35q-68 0 -112 54.5t-44 140.5z" />
<glyph unicode="&#x2019;" horiz-adv-x="661" d="M236 750q92 23 149 77t57 121q0 45 -13 72t-29.5 49.5t-30 47t-13.5 63.5q0 53 38 88t93 35q68 0 112 -54.5t44 -140.5q0 -70 -29.5 -137.5t-82 -123.5t-120 -98t-145.5 -59z" />
<glyph unicode="&#x201a;" horiz-adv-x="661" d="M27 -279q92 23 149 77.5t57 121.5q0 45 -13 71.5t-29.5 49t-30 47.5t-13.5 64q0 53 38 87.5t94 34.5q68 0 111.5 -54t43.5 -140q0 -70 -29.5 -137.5t-82 -124t-120 -98.5t-145.5 -58z" />
<glyph unicode="&#x201c;" horiz-adv-x="1236" d="M322 885q0 70 29.5 137.5t81.5 123.5t121 98t144 59l31 -60q-92 -23 -149.5 -77t-57.5 -122q0 -45 13.5 -71.5t30 -49t29.5 -46t13 -64.5q0 -53 -38 -88t-93 -35q-68 0 -111.5 54.5t-43.5 140.5zM885 885q0 70 29.5 137.5t82 123.5t121 98t144.5 59l30 -60 q-92 -23 -149.5 -77t-57.5 -122q0 -45 13.5 -71.5t30 -49t29.5 -46t13 -64.5q0 -53 -37.5 -88t-93.5 -35q-68 0 -111.5 54.5t-43.5 140.5z" />
<glyph unicode="&#x201d;" horiz-adv-x="1236" d="M236 750q92 23 149 77t57 121q0 45 -13 72t-29.5 49.5t-30 47t-13.5 63.5q0 53 38 88t93 35q68 0 112 -54.5t44 -140.5q0 -70 -29.5 -137.5t-82 -123.5t-120 -98t-145.5 -59zM799 750q92 23 149.5 77t57.5 121q0 45 -13.5 72t-30 49.5t-29.5 47t-13 63.5q0 53 37.5 88 t93.5 35q68 0 111.5 -54.5t43.5 -140.5q0 -70 -29.5 -137.5t-82 -123.5t-120 -98t-145.5 -59z" />
<glyph unicode="&#x201e;" horiz-adv-x="1236" d="M39 -279q92 23 149.5 77.5t57.5 121.5q0 45 -13.5 71.5t-30 49t-29.5 47.5t-13 64q0 53 38 87.5t93 34.5q68 0 111.5 -54t43.5 -140q0 -70 -29.5 -137.5t-81.5 -124t-120 -98.5t-145 -58zM602 -279q92 23 149.5 77.5t57.5 121.5q0 45 -13.5 71.5t-29.5 49t-29.5 47.5 t-13.5 64q0 53 38 87.5t93 34.5q68 0 112 -54t44 -140q0 -70 -30 -137.5t-82 -124t-119.5 -98.5t-145.5 -58z" />
<glyph unicode="&#x2022;" horiz-adv-x="724" d="M150 637q0 59 22.5 111.5t60 90.5t90 60.5t111.5 22.5t111.5 -22.5t91.5 -60.5t61.5 -90.5t22.5 -111.5t-22.5 -111.5t-61.5 -91.5t-91 -61.5t-112 -22.5q-59 0 -111.5 22.5t-90 61.5t-60 91.5t-22.5 111.5z" />
<glyph unicode="&#x2026;" horiz-adv-x="2048" d="M176 117q0 59 49 98t115 39q72 0 119 -39t47 -98q0 -57 -46 -98.5t-120 -41.5t-119 41t-45 99zM860 117q0 59 49 98t115 39q72 0 119 -39t47 -98q0 -57 -46 -98.5t-120 -41.5t-119 41t-45 99zM1544 117q0 59 49 98t115 39q72 0 119 -39t47 -98q0 -57 -46 -98.5 t-120 -41.5t-119 41t-45 99z" />
<glyph unicode="&#x202f;" horiz-adv-x="353" />
<glyph unicode="&#x2039;" horiz-adv-x="491" d="M76 459l383 372h69l-223 -372l27 -371h-66z" />
<glyph unicode="&#x203a;" horiz-adv-x="491" d="M45 88l223 373l-26 370h65l191 -370l-383 -373h-70z" />
<glyph unicode="&#x205f;" horiz-adv-x="442" />
<glyph unicode="&#x2122;" horiz-adv-x="2048" d="M-4 1130v226h776v-226h-35q-6 96 -49 135.5t-143 39.5h-37v-588q0 -84 18.5 -108.5t81.5 -24.5v-35h-452v35q37 2 57 6t30.5 17.5t12.5 40t2 73.5v584h-33q-98 0 -142 -40t-54 -135h-33zM883 549v35q37 2 59.5 6t33.5 18.5t14 40t3 68.5v469q0 82 -17.5 107.5t-74.5 25.5 l-18 -2v39h368l232 -496l223 496h352v-39q-33 0 -52 -4t-30.5 -18.5t-15.5 -40t-4 -68.5v-496q0 -57 24.5 -81.5t77.5 -24.5v-35h-461v35q35 0 56.5 5t33 18.5t15.5 39t4 66.5v504h-4l-309 -668h-25l-315 668h-4v-515q0 -70 19 -94t95 -24v-35h-280z" />
<glyph unicode="&#x25fc;" horiz-adv-x="860" d="M0 0v860h860v-860h-860z" />
<glyph unicode="&#xfb01;" horiz-adv-x="1067" d="M-403 -354q0 43 31.5 73.5t80.5 30.5q45 0 73 -23.5t49.5 -53t42 -53t50.5 -23.5q43 0 72 38.5t48 103t33.5 147.5t28.5 173l113 684h-149l10 50q59 4 96 14t64 31q16 109 56 207t102.5 171.5t147.5 116.5t195 43q96 0 155.5 -33.5t59.5 -91.5q0 -43 -34.5 -72.5 t-83.5 -29.5t-81 23.5t-56.5 51t-48 50t-54.5 22.5q-29 0 -46 -21.5t-31.5 -73.5t-28 -140t-33.5 -223h301q25 0 69.5 5t83.5 15h25l-115 -676q-6 -39 -2 -57.5t27 -18.5q20 0 62 37t83 76l35 -41q-111 -109 -190.5 -155t-145.5 -46q-68 0 -87 44.5t-5 128.5l100 593h-262 l-108 -649q-23 -141 -66 -240.5t-127 -183.5q-78 -78 -160.5 -112.5t-175.5 -34.5q-94 0 -149 32.5t-55 90.5z" />
<glyph unicode="&#xfb02;" horiz-adv-x="1067" d="M-403 -350q0 41 34.5 70.5t81.5 29.5t74 -23.5t47.5 -53t41 -53t54.5 -23.5q35 0 77 49t59 153l157 944h-149l10 50q61 4 95 13t63 32q25 141 72.5 242.5t113.5 168t144.5 97t166.5 30.5q98 0 174 -41l80 35q23 10 28 1t-3 -58l-191 -1120q-12 -82 21 -82q18 0 56 27.5 t91 80.5l33 -39q-86 -94 -173 -148.5t-159 -54.5q-98 0 -98 103q0 12 1 22.5t2 25.5t5 38.5t10 62.5l82 514h-256l-116 -692q-20 -123 -72.5 -221t-123.5 -167t-156 -104.5t-171 -35.5q-92 0 -149 34.5t-57 92.5zM461 838h258l55 329q-27 8 -48 30t-40.5 43.5t-40 38.5 t-47.5 17q-39 0 -58.5 -39.5t-37.5 -156.5z" />
</font>
</defs>
</svg>
